<svg width="47" height="47" viewBox="0 0 47 47" fill="none" xmlns="http://www.w3.org/2000/svg">
<path d="M19.6422 17.5663C19.3638 17.3068 18.9955 17.1656 18.615 17.1723C18.2345 17.179 17.8714 17.3331 17.6023 17.6022C17.3332 17.8713 17.1791 18.2344 17.1724 18.6149C17.1657 18.9954 17.3069 19.3637 17.5663 19.6421L21.4243 23.5L17.5663 27.3579C17.422 27.4924 17.3063 27.6545 17.226 27.8347C17.1458 28.0149 17.1026 28.2094 17.0991 28.4066C17.0956 28.6038 17.1319 28.7997 17.2058 28.9826C17.2796 29.1654 17.3896 29.3316 17.5291 29.471C17.6685 29.6105 17.8347 29.7205 18.0176 29.7943C18.2004 29.8682 18.3963 29.9045 18.5935 29.901C18.7907 29.8975 18.9852 29.8544 19.1654 29.7741C19.3456 29.6938 19.5077 29.5781 19.6422 29.4338L23.5001 25.5758L27.358 29.4338C27.6364 29.6932 28.0047 29.8344 28.3852 29.8277C28.7657 29.821 29.1288 29.6669 29.3979 29.3978C29.667 29.1287 29.8211 28.7656 29.8278 28.3851C29.8345 28.0046 29.6933 27.6363 29.4338 27.3579L25.5759 23.5L29.4338 19.6421C29.5782 19.5076 29.6939 19.3455 29.7742 19.1653C29.8544 18.9851 29.8976 18.7907 29.9011 18.5934C29.9046 18.3962 29.8683 18.2003 29.7944 18.0175C29.7206 17.8346 29.6106 17.6684 29.4711 17.529C29.3317 17.3895 29.1655 17.2796 28.9826 17.2057C28.7998 17.1318 28.6039 17.0955 28.4067 17.099C28.2094 17.1025 28.015 17.1457 27.8348 17.2259C27.6546 17.3062 27.4925 17.422 27.358 17.5663L23.5001 21.4242L19.6422 17.5663Z" fill="#111111"/>
<path fill-rule="evenodd" clip-rule="evenodd" d="M23.5001 2.44792C11.8735 2.44792 2.448 11.8734 2.448 23.5C2.448 35.1266 11.8735 44.5521 23.5001 44.5521C35.1267 44.5521 44.5522 35.1266 44.5522 23.5C44.5522 11.8734 35.1267 2.44792 23.5001 2.44792ZM5.3855 23.5C5.3855 18.6957 7.29399 14.0882 10.6911 10.6911C14.0883 7.29392 18.6958 5.38542 23.5001 5.38542C28.3044 5.38542 32.9119 7.29392 36.309 10.6911C39.7062 14.0882 41.6147 18.6957 41.6147 23.5C41.6147 28.3043 39.7062 32.9118 36.309 36.3089C32.9119 39.7061 28.3044 41.6146 23.5001 41.6146C18.6958 41.6146 14.0883 39.7061 10.6911 36.3089C7.29399 32.9118 5.3855 28.3043 5.3855 23.5Z" fill="#111111"/>
</svg>
