<svg width="124" height="124" viewBox="0 0 124 124" fill="none" xmlns="http://www.w3.org/2000/svg">
<path fill-rule="evenodd" clip-rule="evenodd" d="M45.9106 4.42802C48.9208 4.35641 51.867 5.30956 54.2655 7.13239C56.6808 8.96813 58.3969 11.5821 59.1253 14.5271L61.0292 22.1423H110.714C114.238 22.1423 117.618 23.542 120.109 26.0336C122.601 28.5251 124 31.9044 124 35.428V106.285C124 109.809 122.601 113.188 120.109 115.68C117.618 118.171 114.238 119.571 110.714 119.571H13.2857C9.76208 119.571 6.38285 118.171 3.8913 115.68C1.39974 113.188 0 109.809 0 106.285V17.7138C0 14.1901 1.39974 10.8109 3.8913 8.31931C6.38285 5.82775 9.76217 4.42802 13.2857 4.42802H45.9106ZM85.0286 57.1286C87.2298 54.1936 86.635 50.0298 83.7 47.8286C80.765 45.6273 76.6013 46.2222 74.4 49.1572L51.599 79.5585L43.542 74.1871C40.4894 72.1521 36.365 72.9769 34.3299 76.0295C32.2949 79.0821 33.1198 83.2064 36.1723 85.2415L49.458 94.0983C52.3915 96.0539 56.3418 95.3773 58.4571 92.5571L85.0286 57.1286Z" fill="#5570F1"/>
</svg>
