<svg width="248" height="111" viewBox="0 0 248 111" fill="none" xmlns="http://www.w3.org/2000/svg">
<g filter="url(#filter0_dd_171_2624)">
<mask id="path-1-inside-1_171_2624" fill="white">
<path d="M12 11C12 6.58172 15.5817 3 20 3H236C240.418 3 244 6.58172 244 11V98C244 102.418 240.418 106 236 106H20C15.5817 106 12 102.418 12 98V11Z"/>
</mask>
<path d="M12 11C12 6.58172 15.5817 3 20 3H236C240.418 3 244 6.58172 244 11V98C244 102.418 240.418 106 236 106H20C15.5817 106 12 102.418 12 98V11Z" fill="white" shape-rendering="crispEdges"/>
<path d="M20 4H236V2H20V4ZM243 11V98H245V11H243ZM236 105H20V107H236V105ZM13 98V11H11V98H13ZM20 105C16.134 105 13 101.866 13 98H11C11 102.971 15.0294 107 20 107V105ZM243 98C243 101.866 239.866 105 236 105V107C240.971 107 245 102.971 245 98H243ZM236 4C239.866 4 243 7.13401 243 11H245C245 6.02944 240.971 2 236 2V4ZM20 2C15.0294 2 11 6.02944 11 11H13C13 7.13401 16.134 4 20 4V2Z" fill="#D9D9D9" mask="url(#path-1-inside-1_171_2624)"/>
<path d="M45.9034 28H41.9602V16.3636H45.983C47.1383 16.3636 48.1307 16.5966 48.9602 17.0625C49.7936 17.5246 50.4337 18.1894 50.8807 19.0568C51.3277 19.9242 51.5511 20.9621 51.5511 22.1705C51.5511 23.3826 51.3258 24.4242 50.875 25.2955C50.428 26.1667 49.7822 26.8352 48.9375 27.3011C48.0966 27.767 47.0852 28 45.9034 28ZM44.0682 26.1761H45.8011C46.6117 26.1761 47.2879 26.0284 47.8295 25.733C48.3712 25.4337 48.7784 24.9886 49.0511 24.3977C49.3239 23.803 49.4602 23.0606 49.4602 22.1705C49.4602 21.2803 49.3239 20.5417 49.0511 19.9545C48.7784 19.3636 48.375 18.9223 47.8409 18.6307C47.3106 18.3352 46.6515 18.1875 45.8636 18.1875H44.0682V26.1761ZM55.9744 28.1761C55.4214 28.1761 54.9233 28.0777 54.4801 27.8807C54.0407 27.6799 53.6922 27.3845 53.4347 26.9943C53.1809 26.6042 53.054 26.1231 53.054 25.5511C53.054 25.0587 53.1449 24.6515 53.3267 24.3295C53.5085 24.0076 53.7566 23.75 54.071 23.5568C54.3854 23.3636 54.7396 23.2178 55.1335 23.1193C55.5313 23.017 55.9422 22.9432 56.3665 22.8977C56.8778 22.8447 57.2926 22.7973 57.6108 22.7557C57.929 22.7102 58.16 22.642 58.304 22.5511C58.4517 22.4564 58.5256 22.3106 58.5256 22.1136V22.0795C58.5256 21.6515 58.3987 21.3201 58.1449 21.0852C57.8911 20.8504 57.5256 20.733 57.0483 20.733C56.5445 20.733 56.1449 20.8428 55.8494 21.0625C55.5578 21.2822 55.3608 21.5417 55.2585 21.8409L53.3381 21.5682C53.4896 21.0379 53.7396 20.5947 54.0881 20.2386C54.4366 19.8788 54.8627 19.6098 55.3665 19.4318C55.8703 19.25 56.4271 19.1591 57.0369 19.1591C57.4574 19.1591 57.8759 19.2083 58.2926 19.3068C58.7093 19.4053 59.09 19.5682 59.4347 19.7955C59.7794 20.0189 60.0559 20.3239 60.2642 20.7102C60.4763 21.0966 60.5824 21.5795 60.5824 22.1591V28H58.6051V26.8011H58.5369C58.4119 27.0436 58.2358 27.2708 58.0085 27.483C57.785 27.6913 57.5028 27.8598 57.1619 27.9886C56.8248 28.1136 56.429 28.1761 55.9744 28.1761ZM56.5085 26.6648C56.9214 26.6648 57.2794 26.5833 57.5824 26.4205C57.8854 26.2538 58.1184 26.0341 58.2812 25.7614C58.4479 25.4886 58.5312 25.1913 58.5312 24.8693V23.8409C58.4669 23.8939 58.357 23.9432 58.2017 23.9886C58.0502 24.0341 57.8797 24.0739 57.6903 24.108C57.5009 24.142 57.3134 24.1723 57.1278 24.1989C56.9422 24.2254 56.7813 24.2481 56.6449 24.267C56.3381 24.3087 56.0634 24.3769 55.821 24.4716C55.5786 24.5663 55.3873 24.6989 55.2472 24.8693C55.107 25.036 55.0369 25.2519 55.0369 25.517C55.0369 25.8958 55.1752 26.1818 55.4517 26.375C55.7282 26.5682 56.0805 26.6648 56.5085 26.6648ZM67.071 19.2727V20.8636H61.9119V19.2727H67.071ZM63.2017 28V18.4489C63.2017 17.8617 63.3229 17.3731 63.5653 16.983C63.8116 16.5928 64.1411 16.3011 64.554 16.108C64.9669 15.9148 65.4252 15.8182 65.929 15.8182C66.285 15.8182 66.6013 15.8466 66.8778 15.9034C67.1544 15.9602 67.3589 16.0114 67.4915 16.0568L67.0824 17.6477C66.9953 17.6212 66.8854 17.5947 66.7528 17.5682C66.6203 17.5379 66.4725 17.5227 66.3097 17.5227C65.9271 17.5227 65.6563 17.6155 65.4972 17.8011C65.3419 17.983 65.2642 18.2443 65.2642 18.5852V28H63.2017ZM73.0398 19.2727V20.8636H68.0227V19.2727H73.0398ZM69.2614 17.1818H71.3182V25.375C71.3182 25.6515 71.3598 25.8636 71.4432 26.0114C71.5303 26.1553 71.6439 26.2538 71.7841 26.3068C71.9242 26.3598 72.0795 26.3864 72.25 26.3864C72.3788 26.3864 72.4962 26.3769 72.6023 26.358C72.7121 26.339 72.7955 26.322 72.8523 26.3068L73.1989 27.9148C73.089 27.9527 72.9318 27.9943 72.7273 28.0398C72.5265 28.0852 72.2803 28.1117 71.9886 28.1193C71.4735 28.1345 71.0095 28.0568 70.5966 27.8864C70.1837 27.7121 69.8561 27.4432 69.6136 27.0795C69.375 26.7159 69.2576 26.2614 69.2614 25.7159V17.1818ZM77.2713 28.1761C76.7183 28.1761 76.2202 28.0777 75.777 27.8807C75.3376 27.6799 74.9891 27.3845 74.7315 26.9943C74.4777 26.6042 74.3509 26.1231 74.3509 25.5511C74.3509 25.0587 74.4418 24.6515 74.6236 24.3295C74.8054 24.0076 75.0535 23.75 75.3679 23.5568C75.6823 23.3636 76.0365 23.2178 76.4304 23.1193C76.8281 23.017 77.2391 22.9432 77.6634 22.8977C78.1747 22.8447 78.5895 22.7973 78.9077 22.7557C79.2259 22.7102 79.4569 22.642 79.6009 22.5511C79.7486 22.4564 79.8224 22.3106 79.8224 22.1136V22.0795C79.8224 21.6515 79.6955 21.3201 79.4418 21.0852C79.188 20.8504 78.8224 20.733 78.3452 20.733C77.8414 20.733 77.4418 20.8428 77.1463 21.0625C76.8546 21.2822 76.6577 21.5417 76.5554 21.8409L74.6349 21.5682C74.7865 21.0379 75.0365 20.5947 75.3849 20.2386C75.7334 19.8788 76.1596 19.6098 76.6634 19.4318C77.1671 19.25 77.724 19.1591 78.3338 19.1591C78.7543 19.1591 79.1728 19.2083 79.5895 19.3068C80.0062 19.4053 80.3868 19.5682 80.7315 19.7955C81.0762 20.0189 81.3527 20.3239 81.5611 20.7102C81.7732 21.0966 81.8793 21.5795 81.8793 22.1591V28H79.902V26.8011H79.8338C79.7088 27.0436 79.5327 27.2708 79.3054 27.483C79.0819 27.6913 78.7997 27.8598 78.4588 27.9886C78.1217 28.1136 77.7259 28.1761 77.2713 28.1761ZM77.8054 26.6648C78.2183 26.6648 78.5762 26.5833 78.8793 26.4205C79.1823 26.2538 79.4152 26.0341 79.5781 25.7614C79.7448 25.4886 79.8281 25.1913 79.8281 24.8693V23.8409C79.7637 23.8939 79.6539 23.9432 79.4986 23.9886C79.3471 24.0341 79.1766 24.0739 78.9872 24.108C78.7978 24.142 78.6103 24.1723 78.4247 24.1989C78.2391 24.2254 78.0781 24.2481 77.9418 24.267C77.6349 24.3087 77.3603 24.3769 77.1179 24.4716C76.8755 24.5663 76.6842 24.6989 76.544 24.8693C76.4039 25.036 76.3338 25.2519 76.3338 25.517C76.3338 25.8958 76.4721 26.1818 76.7486 26.375C77.0251 26.5682 77.3774 26.6648 77.8054 26.6648ZM83.9474 28V19.2727H85.9418V20.7273H86.0327C86.1918 20.2235 86.4645 19.8352 86.8509 19.5625C87.241 19.286 87.6861 19.1477 88.1861 19.1477C88.2997 19.1477 88.4266 19.1534 88.5668 19.1648C88.7107 19.1723 88.83 19.1856 88.9247 19.2045V21.0966C88.8376 21.0663 88.6993 21.0398 88.5099 21.017C88.3243 20.9905 88.1444 20.9773 87.9702 20.9773C87.5952 20.9773 87.258 21.0587 86.9588 21.2216C86.6634 21.3807 86.4304 21.6023 86.2599 21.8864C86.0895 22.1705 86.0043 22.4981 86.0043 22.8693V28H83.9474ZM94.3509 28V16.3636H98.7145C99.6084 16.3636 100.358 16.5303 100.964 16.8636C101.574 17.197 102.035 17.6553 102.345 18.2386C102.66 18.8182 102.817 19.4773 102.817 20.2159C102.817 20.9621 102.66 21.625 102.345 22.2045C102.031 22.7841 101.567 23.2405 100.953 23.5739C100.339 23.9034 99.5838 24.0682 98.6861 24.0682H95.794V22.3352H98.402C98.9247 22.3352 99.3527 22.2443 99.6861 22.0625C100.019 21.8807 100.266 21.6307 100.425 21.3125C100.588 20.9943 100.669 20.6288 100.669 20.2159C100.669 19.803 100.588 19.4394 100.425 19.125C100.266 18.8106 100.018 18.5663 99.6804 18.392C99.3471 18.214 98.9171 18.125 98.3906 18.125H96.4588V28H94.3509ZM104.557 28V19.2727H106.551V20.7273H106.642C106.801 20.2235 107.074 19.8352 107.46 19.5625C107.85 19.286 108.295 19.1477 108.795 19.1477C108.909 19.1477 109.036 19.1534 109.176 19.1648C109.32 19.1723 109.439 19.1856 109.534 19.2045V21.0966C109.447 21.0663 109.309 21.0398 109.119 21.017C108.934 20.9905 108.754 20.9773 108.58 20.9773C108.205 20.9773 107.867 21.0587 107.568 21.2216C107.273 21.3807 107.04 21.6023 106.869 21.8864C106.699 22.1705 106.614 22.4981 106.614 22.8693V28H104.557ZM114.348 28.1705C113.496 28.1705 112.757 27.983 112.132 27.608C111.507 27.233 111.022 26.7083 110.678 26.0341C110.337 25.3598 110.166 24.572 110.166 23.6705C110.166 22.7689 110.337 21.9792 110.678 21.3011C111.022 20.6231 111.507 20.0966 112.132 19.7216C112.757 19.3466 113.496 19.1591 114.348 19.1591C115.2 19.1591 115.939 19.3466 116.564 19.7216C117.189 20.0966 117.672 20.6231 118.013 21.3011C118.357 21.9792 118.53 22.7689 118.53 23.6705C118.53 24.572 118.357 25.3598 118.013 26.0341C117.672 26.7083 117.189 27.233 116.564 27.608C115.939 27.983 115.2 28.1705 114.348 28.1705ZM114.359 26.5227C114.821 26.5227 115.208 26.3958 115.518 26.142C115.829 25.8845 116.06 25.5398 116.212 25.108C116.367 24.6761 116.445 24.1951 116.445 23.6648C116.445 23.1307 116.367 22.6477 116.212 22.2159C116.06 21.7803 115.829 21.4337 115.518 21.1761C115.208 20.9186 114.821 20.7898 114.359 20.7898C113.886 20.7898 113.492 20.9186 113.178 21.1761C112.867 21.4337 112.634 21.7803 112.479 22.2159C112.327 22.6477 112.251 23.1307 112.251 23.6648C112.251 24.1951 112.327 24.6761 112.479 25.108C112.634 25.5398 112.867 25.8845 113.178 26.142C113.492 26.3958 113.886 26.5227 114.359 26.5227ZM123.514 28.1534C122.829 28.1534 122.215 27.9773 121.673 27.625C121.132 27.2727 120.704 26.7614 120.389 26.0909C120.075 25.4205 119.918 24.6061 119.918 23.6477C119.918 22.678 120.077 21.8598 120.395 21.1932C120.717 20.5227 121.151 20.017 121.696 19.6761C122.241 19.3314 122.849 19.1591 123.52 19.1591C124.031 19.1591 124.452 19.2462 124.781 19.4205C125.111 19.5909 125.372 19.7973 125.565 20.0398C125.759 20.2784 125.908 20.5038 126.014 20.7159H126.099V16.3636H128.162V28H126.139V26.625H126.014C125.908 26.8371 125.755 27.0625 125.554 27.3011C125.353 27.536 125.088 27.7367 124.759 27.9034C124.429 28.0701 124.014 28.1534 123.514 28.1534ZM124.088 26.4659C124.524 26.4659 124.895 26.3485 125.202 26.1136C125.509 25.875 125.741 25.5436 125.901 25.1193C126.06 24.6951 126.139 24.2008 126.139 23.6364C126.139 23.072 126.06 22.5814 125.901 22.1648C125.745 21.7481 125.514 21.4242 125.207 21.1932C124.904 20.9621 124.531 20.8466 124.088 20.8466C123.63 20.8466 123.247 20.9659 122.94 21.2045C122.634 21.4432 122.402 21.7727 122.247 22.1932C122.092 22.6136 122.014 23.0947 122.014 23.6364C122.014 24.1818 122.092 24.6686 122.247 25.0966C122.406 25.5208 122.639 25.8561 122.946 26.1023C123.257 26.3447 123.637 26.4659 124.088 26.4659ZM135.916 24.3295V19.2727H137.973V28H135.979V26.4489H135.888C135.691 26.9375 135.367 27.3371 134.916 27.6477C134.469 27.9583 133.918 28.1136 133.263 28.1136C132.691 28.1136 132.185 27.9867 131.746 27.733C131.31 27.4754 130.969 27.1023 130.723 26.6136C130.477 26.1212 130.354 25.5265 130.354 24.8295V19.2727H132.411V24.5114C132.411 25.0644 132.562 25.5038 132.865 25.8295C133.168 26.1553 133.566 26.3182 134.058 26.3182C134.361 26.3182 134.655 26.2443 134.939 26.0966C135.223 25.9489 135.456 25.7292 135.638 25.4375C135.823 25.142 135.916 24.7727 135.916 24.3295ZM141.963 25.2614L141.957 22.7784H142.287L145.423 19.2727H147.827L143.969 23.5682H143.543L141.963 25.2614ZM140.088 28V16.3636H142.145V28H140.088ZM145.565 28L142.724 24.0284L144.111 22.5795L148.026 28H145.565ZM157.524 19.2727V20.8636H152.507V19.2727H157.524ZM153.746 17.1818H155.803V25.375C155.803 25.6515 155.844 25.8636 155.928 26.0114C156.015 26.1553 156.128 26.2538 156.268 26.3068C156.409 26.3598 156.564 26.3864 156.734 26.3864C156.863 26.3864 156.981 26.3769 157.087 26.358C157.196 26.339 157.28 26.322 157.337 26.3068L157.683 27.9148C157.573 27.9527 157.416 27.9943 157.212 28.0398C157.011 28.0852 156.765 28.1117 156.473 28.1193C155.958 28.1345 155.494 28.0568 155.081 27.8864C154.668 27.7121 154.34 27.4432 154.098 27.0795C153.859 26.7159 153.742 26.2614 153.746 25.7159V17.1818ZM163.014 28.1705C162.139 28.1705 161.384 27.9886 160.747 27.625C160.115 27.2576 159.628 26.7386 159.287 26.0682C158.946 25.3939 158.776 24.6004 158.776 23.6875C158.776 22.7898 158.946 22.0019 159.287 21.3239C159.632 20.642 160.113 20.1117 160.73 19.733C161.348 19.3504 162.073 19.1591 162.906 19.1591C163.444 19.1591 163.952 19.2462 164.429 19.4205C164.91 19.5909 165.334 19.8561 165.702 20.2159C166.073 20.5758 166.365 21.0341 166.577 21.5909C166.789 22.1439 166.895 22.803 166.895 23.5682V24.1989H159.741V22.8125H164.923C164.92 22.4186 164.834 22.0682 164.668 21.7614C164.501 21.4508 164.268 21.2064 163.969 21.0284C163.673 20.8504 163.329 20.7614 162.935 20.7614C162.514 20.7614 162.145 20.8636 161.827 21.0682C161.509 21.2689 161.26 21.5341 161.082 21.8636C160.908 22.1894 160.819 22.5473 160.815 22.9375V24.1477C160.815 24.6553 160.908 25.0909 161.094 25.4545C161.279 25.8144 161.539 26.0909 161.872 26.2841C162.205 26.4735 162.596 26.5682 163.043 26.5682C163.342 26.5682 163.613 26.5265 163.855 26.4432C164.098 26.3561 164.308 26.2292 164.486 26.0625C164.664 25.8958 164.798 25.6894 164.889 25.4432L166.81 25.6591C166.688 26.1667 166.457 26.6098 166.116 26.9886C165.779 27.3636 165.348 27.6553 164.821 27.8636C164.295 28.0682 163.692 28.1705 163.014 28.1705ZM168.635 28V19.2727H170.629V20.7273H170.72C170.879 20.2235 171.152 19.8352 171.538 19.5625C171.929 19.286 172.374 19.1477 172.874 19.1477C172.987 19.1477 173.114 19.1534 173.254 19.1648C173.398 19.1723 173.518 19.1856 173.612 19.2045V21.0966C173.525 21.0663 173.387 21.0398 173.197 21.017C173.012 20.9905 172.832 20.9773 172.658 20.9773C172.283 20.9773 171.946 21.0587 171.646 21.2216C171.351 21.3807 171.118 21.6023 170.947 21.8864C170.777 22.1705 170.692 22.4981 170.692 22.8693V28H168.635ZM177.036 16.3636V28H174.979V16.3636H177.036ZM181.662 28.1761C181.109 28.1761 180.611 28.0777 180.168 27.8807C179.728 27.6799 179.38 27.3845 179.122 26.9943C178.868 26.6042 178.741 26.1231 178.741 25.5511C178.741 25.0587 178.832 24.6515 179.014 24.3295C179.196 24.0076 179.444 23.75 179.759 23.5568C180.073 23.3636 180.427 23.2178 180.821 23.1193C181.219 23.017 181.63 22.9432 182.054 22.8977C182.565 22.8447 182.98 22.7973 183.298 22.7557C183.616 22.7102 183.848 22.642 183.991 22.5511C184.139 22.4564 184.213 22.3106 184.213 22.1136V22.0795C184.213 21.6515 184.086 21.3201 183.832 21.0852C183.579 20.8504 183.213 20.733 182.736 20.733C182.232 20.733 181.832 20.8428 181.537 21.0625C181.245 21.2822 181.048 21.5417 180.946 21.8409L179.026 21.5682C179.177 21.0379 179.427 20.5947 179.776 20.2386C180.124 19.8788 180.55 19.6098 181.054 19.4318C181.558 19.25 182.115 19.1591 182.724 19.1591C183.145 19.1591 183.563 19.2083 183.98 19.3068C184.397 19.4053 184.777 19.5682 185.122 19.7955C185.467 20.0189 185.743 20.3239 185.952 20.7102C186.164 21.0966 186.27 21.5795 186.27 22.1591V28H184.293V26.8011H184.224C184.099 27.0436 183.923 27.2708 183.696 27.483C183.473 27.6913 183.19 27.8598 182.849 27.9886C182.512 28.1136 182.116 28.1761 181.662 28.1761ZM182.196 26.6648C182.609 26.6648 182.967 26.5833 183.27 26.4205C183.573 26.2538 183.806 26.0341 183.969 25.7614C184.135 25.4886 184.219 25.1913 184.219 24.8693V23.8409C184.154 23.8939 184.045 23.9432 183.889 23.9886C183.738 24.0341 183.567 24.0739 183.378 24.108C183.188 24.142 183.001 24.1723 182.815 24.1989C182.63 24.2254 182.469 24.2481 182.332 24.267C182.026 24.3087 181.751 24.3769 181.509 24.4716C181.266 24.5663 181.075 24.6989 180.935 24.8693C180.795 25.036 180.724 25.2519 180.724 25.517C180.724 25.8958 180.863 26.1818 181.139 26.375C181.416 26.5682 181.768 26.6648 182.196 26.6648ZM188.338 28V19.2727H190.332V20.7273H190.423C190.582 20.2235 190.855 19.8352 191.241 19.5625C191.632 19.286 192.077 19.1477 192.577 19.1477C192.69 19.1477 192.817 19.1534 192.957 19.1648C193.101 19.1723 193.221 19.1856 193.315 19.2045V21.0966C193.228 21.0663 193.09 21.0398 192.901 21.017C192.715 20.9905 192.535 20.9773 192.361 20.9773C191.986 20.9773 191.649 21.0587 191.349 21.2216C191.054 21.3807 190.821 21.6023 190.651 21.8864C190.48 22.1705 190.395 22.4981 190.395 22.8693V28H188.338ZM194.682 28V19.2727H196.739V28H194.682ZM195.716 18.0341C195.39 18.0341 195.11 17.9261 194.875 17.7102C194.64 17.4905 194.523 17.2273 194.523 16.9205C194.523 16.6098 194.64 16.3466 194.875 16.1307C195.11 15.911 195.39 15.8011 195.716 15.8011C196.045 15.8011 196.326 15.911 196.557 16.1307C196.792 16.3466 196.909 16.6098 196.909 16.9205C196.909 17.2273 196.792 17.4905 196.557 17.7102C196.326 17.9261 196.045 18.0341 195.716 18.0341ZM205.751 21.5795L203.876 21.7841C203.823 21.5947 203.731 21.4167 203.598 21.25C203.469 21.0833 203.295 20.9489 203.075 20.8466C202.856 20.7443 202.587 20.6932 202.268 20.6932C201.84 20.6932 201.481 20.786 201.189 20.9716C200.901 21.1572 200.759 21.3977 200.763 21.6932C200.759 21.947 200.852 22.1534 201.041 22.3125C201.234 22.4716 201.553 22.6023 201.996 22.7045L203.484 23.0227C204.31 23.2008 204.924 23.483 205.325 23.8693C205.731 24.2557 205.935 24.7614 205.939 25.3864C205.935 25.9356 205.774 26.4205 205.456 26.8409C205.142 27.2576 204.704 27.5833 204.143 27.8182C203.583 28.053 202.939 28.1705 202.212 28.1705C201.143 28.1705 200.284 27.947 199.632 27.5C198.981 27.0492 198.592 26.4223 198.467 25.6193L200.473 25.4261C200.564 25.8201 200.757 26.1174 201.053 26.3182C201.348 26.5189 201.732 26.6193 202.206 26.6193C202.695 26.6193 203.087 26.5189 203.382 26.3182C203.681 26.1174 203.831 25.8693 203.831 25.5739C203.831 25.3239 203.734 25.1174 203.541 24.9545C203.352 24.7917 203.056 24.6667 202.655 24.5795L201.166 24.267C200.329 24.0928 199.71 23.7992 199.308 23.3864C198.907 22.9697 198.708 22.4432 198.712 21.8068C198.708 21.2689 198.854 20.803 199.149 20.4091C199.448 20.0114 199.863 19.7045 200.393 19.4886C200.928 19.2689 201.543 19.1591 202.24 19.1591C203.263 19.1591 204.068 19.3769 204.655 19.8125C205.246 20.2481 205.611 20.8371 205.751 21.5795ZM212.871 28.125C212.526 28.125 212.231 28.0038 211.984 27.7614C211.738 27.5189 211.617 27.2235 211.621 26.875C211.617 26.5341 211.738 26.2424 211.984 26C212.231 25.7576 212.526 25.6364 212.871 25.6364C213.204 25.6364 213.494 25.7576 213.74 26C213.99 26.2424 214.117 26.5341 214.121 26.875C214.117 27.1061 214.056 27.3163 213.939 27.5057C213.825 27.6951 213.674 27.8466 213.484 27.9602C213.299 28.0701 213.094 28.125 212.871 28.125ZM212.871 21.8977C212.526 21.8977 212.231 21.7765 211.984 21.5341C211.738 21.2879 211.617 20.9924 211.621 20.6477C211.617 20.3068 211.738 20.0152 211.984 19.7727C212.231 19.5265 212.526 19.4034 212.871 19.4034C213.204 19.4034 213.494 19.5265 213.74 19.7727C213.99 20.0152 214.117 20.3068 214.121 20.6477C214.117 20.875 214.056 21.0833 213.939 21.2727C213.825 21.4621 213.674 21.6136 213.484 21.7273C213.299 21.8409 213.094 21.8977 212.871 21.8977Z" fill="black"/>
<path d="M43.2269 38.9119V37.8182H50.8633V38.9119H47.6616V48H46.4286V38.9119H43.2269ZM54.6019 48.1591C53.9125 48.1591 53.3076 47.995 52.7873 47.6669C52.2702 47.3388 51.8659 46.8797 51.5742 46.2898C51.2859 45.6998 51.1417 45.0104 51.1417 44.2216C51.1417 43.4261 51.2859 42.7318 51.5742 42.1385C51.8659 41.5452 52.2702 41.0845 52.7873 40.7564C53.3076 40.4283 53.9125 40.2642 54.6019 40.2642C55.2913 40.2642 55.8945 40.4283 56.4116 40.7564C56.9319 41.0845 57.3363 41.5452 57.6246 42.1385C57.9163 42.7318 58.0621 43.4261 58.0621 44.2216C58.0621 45.0104 57.9163 45.6998 57.6246 46.2898C57.3363 46.8797 56.9319 47.3388 56.4116 47.6669C55.8945 47.995 55.2913 48.1591 54.6019 48.1591ZM54.6019 47.1051C55.1256 47.1051 55.5565 46.9709 55.8945 46.7024C56.2326 46.4339 56.4828 46.081 56.6452 45.6435C56.8076 45.206 56.8888 44.732 56.8888 44.2216C56.8888 43.7112 56.8076 43.2356 56.6452 42.7947C56.4828 42.3539 56.2326 41.9976 55.8945 41.7259C55.5565 41.4541 55.1256 41.3182 54.6019 41.3182C54.0782 41.3182 53.6474 41.4541 53.3093 41.7259C52.9712 41.9976 52.721 42.3539 52.5586 42.7947C52.3962 43.2356 52.315 43.7112 52.315 44.2216C52.315 44.732 52.3962 45.206 52.5586 45.6435C52.721 46.081 52.9712 46.4339 53.3093 46.7024C53.6474 46.9709 54.0782 47.1051 54.6019 47.1051ZM59.8532 50.8636V40.3636H60.9867V41.5767H61.1259C61.2121 41.4441 61.3314 41.2751 61.4838 41.0696C61.6396 40.8608 61.8617 40.6752 62.15 40.5128C62.4417 40.3471 62.8361 40.2642 63.3333 40.2642C63.9763 40.2642 64.543 40.425 65.0336 40.7464C65.5241 41.0679 65.9069 41.5237 66.182 42.1136C66.4571 42.7036 66.5946 43.3996 66.5946 44.2017C66.5946 45.0104 66.4571 45.7114 66.182 46.3047C65.9069 46.8946 65.5257 47.352 65.0385 47.6768C64.5513 47.9983 63.9895 48.1591 63.3532 48.1591C62.8626 48.1591 62.4699 48.0779 62.1749 47.9155C61.8799 47.7498 61.6529 47.5625 61.4938 47.3537C61.3347 47.1416 61.2121 46.9659 61.1259 46.8267H61.0265V50.8636H59.8532ZM61.0066 44.1818C61.0066 44.7585 61.0911 45.2673 61.2601 45.7081C61.4292 46.1456 61.6761 46.4886 62.0009 46.7372C62.3257 46.9825 62.7234 47.1051 63.1941 47.1051C63.6846 47.1051 64.0939 46.9759 64.4221 46.7173C64.7535 46.4555 65.0021 46.1042 65.1678 45.6634C65.3368 45.2192 65.4213 44.7254 65.4213 44.1818C65.4213 43.6449 65.3385 43.161 65.1728 42.7301C65.0104 42.2959 64.7634 41.9529 64.432 41.701C64.1039 41.4458 63.6912 41.3182 63.1941 41.3182C62.7168 41.3182 62.3158 41.4392 61.9909 41.6811C61.6661 41.9197 61.4209 42.2545 61.2551 42.6854C61.0894 43.1129 61.0066 43.6117 61.0066 44.1818ZM73.4952 43.4062V48H72.3219V40.3636H73.4554V41.5568H73.5549C73.7338 41.169 74.0056 40.8575 74.3702 40.6222C74.7348 40.3835 75.2054 40.2642 75.7821 40.2642C76.2992 40.2642 76.7516 40.3703 77.1394 40.5824C77.5272 40.7912 77.8288 41.1094 78.0442 41.5369C78.2596 41.9612 78.3674 42.4981 78.3674 43.1477V48H77.1941V43.2273C77.1941 42.6274 77.0383 42.16 76.7267 41.8253C76.4152 41.4872 75.9876 41.3182 75.4441 41.3182C75.0695 41.3182 74.7348 41.3994 74.4398 41.5618C74.1481 41.7242 73.9178 41.9612 73.7488 42.2727C73.5797 42.5843 73.4952 42.9621 73.4952 43.4062ZM84.4489 50.8636V40.3636H85.5824V41.5767H85.7216C85.8078 41.4441 85.9271 41.2751 86.0795 41.0696C86.2353 40.8608 86.4574 40.6752 86.7457 40.5128C87.0374 40.3471 87.4318 40.2642 87.929 40.2642C88.572 40.2642 89.1387 40.425 89.6293 40.7464C90.1198 41.0679 90.5026 41.5237 90.7777 42.1136C91.0528 42.7036 91.1903 43.3996 91.1903 44.2017C91.1903 45.0104 91.0528 45.7114 90.7777 46.3047C90.5026 46.8946 90.1214 47.352 89.6342 47.6768C89.147 47.9983 88.5852 48.1591 87.9489 48.1591C87.4583 48.1591 87.0656 48.0779 86.7706 47.9155C86.4756 47.7498 86.2486 47.5625 86.0895 47.3537C85.9304 47.1416 85.8078 46.9659 85.7216 46.8267H85.6222V50.8636H84.4489ZM85.6023 44.1818C85.6023 44.7585 85.6868 45.2673 85.8558 45.7081C86.0249 46.1456 86.2718 46.4886 86.5966 46.7372C86.9214 46.9825 87.3191 47.1051 87.7898 47.1051C88.2803 47.1051 88.6896 46.9759 89.0178 46.7173C89.3492 46.4555 89.5978 46.1042 89.7635 45.6634C89.9325 45.2192 90.017 44.7254 90.017 44.1818C90.017 43.6449 89.9342 43.161 89.7685 42.7301C89.6061 42.2959 89.3591 41.9529 89.0277 41.701C88.6996 41.4458 88.2869 41.3182 87.7898 41.3182C87.3125 41.3182 86.9115 41.4392 86.5866 41.6811C86.2618 41.9197 86.0166 42.2545 85.8509 42.6854C85.6851 43.1129 85.6023 43.6117 85.6023 44.1818ZM92.9801 48V40.3636H94.1136V41.517H94.1932C94.3324 41.1392 94.5843 40.8326 94.9489 40.5973C95.3134 40.362 95.7244 40.2443 96.1818 40.2443C96.268 40.2443 96.3757 40.246 96.505 40.2493C96.6342 40.2526 96.732 40.2576 96.7983 40.2642V41.4574C96.7585 41.4474 96.6674 41.4325 96.5249 41.4126C96.3857 41.3894 96.2382 41.3778 96.0824 41.3778C95.7112 41.3778 95.3797 41.4557 95.0881 41.6115C94.7997 41.764 94.571 41.9761 94.402 42.2479C94.2363 42.5163 94.1534 42.8229 94.1534 43.1676V48H92.9801ZM101.059 48.1591C100.37 48.1591 99.7647 47.995 99.2443 47.6669C98.7273 47.3388 98.3229 46.8797 98.0312 46.2898C97.7429 45.6998 97.5987 45.0104 97.5987 44.2216C97.5987 43.4261 97.7429 42.7318 98.0312 42.1385C98.3229 41.5452 98.7273 41.0845 99.2443 40.7564C99.7647 40.4283 100.37 40.2642 101.059 40.2642C101.748 40.2642 102.352 40.4283 102.869 40.7564C103.389 41.0845 103.793 41.5452 104.082 42.1385C104.373 42.7318 104.519 43.4261 104.519 44.2216C104.519 45.0104 104.373 45.6998 104.082 46.2898C103.793 46.8797 103.389 47.3388 102.869 47.6669C102.352 47.995 101.748 48.1591 101.059 48.1591ZM101.059 47.1051C101.583 47.1051 102.013 46.9709 102.352 46.7024C102.69 46.4339 102.94 46.081 103.102 45.6435C103.265 45.206 103.346 44.732 103.346 44.2216C103.346 43.7112 103.265 43.2356 103.102 42.7947C102.94 42.3539 102.69 41.9976 102.352 41.7259C102.013 41.4541 101.583 41.3182 101.059 41.3182C100.535 41.3182 100.104 41.4541 99.7663 41.7259C99.4283 41.9976 99.178 42.3539 99.0156 42.7947C98.8532 43.2356 98.772 43.7112 98.772 44.2216C98.772 44.732 98.8532 45.206 99.0156 45.6435C99.178 46.081 99.4283 46.4339 99.7663 46.7024C100.104 46.9709 100.535 47.1051 101.059 47.1051ZM109.194 48.1591C108.557 48.1591 107.996 47.9983 107.508 47.6768C107.021 47.352 106.64 46.8946 106.365 46.3047C106.09 45.7114 105.952 45.0104 105.952 44.2017C105.952 43.3996 106.09 42.7036 106.365 42.1136C106.64 41.5237 107.023 41.0679 107.513 40.7464C108.004 40.425 108.571 40.2642 109.214 40.2642C109.711 40.2642 110.104 40.3471 110.392 40.5128C110.684 40.6752 110.906 40.8608 111.058 41.0696C111.214 41.2751 111.335 41.4441 111.421 41.5767H111.52V37.8182H112.694V48H111.56V46.8267H111.421C111.335 46.9659 111.212 47.1416 111.053 47.3537C110.894 47.5625 110.667 47.7498 110.372 47.9155C110.077 48.0779 109.684 48.1591 109.194 48.1591ZM109.353 47.1051C109.823 47.1051 110.221 46.9825 110.546 46.7372C110.871 46.4886 111.118 46.1456 111.287 45.7081C111.456 45.2673 111.54 44.7585 111.54 44.1818C111.54 43.6117 111.457 43.1129 111.292 42.6854C111.126 42.2545 110.881 41.9197 110.556 41.6811C110.231 41.4392 109.83 41.3182 109.353 41.3182C108.856 41.3182 108.441 41.4458 108.11 41.701C107.782 41.9529 107.535 42.2959 107.369 42.7301C107.207 43.161 107.126 43.6449 107.126 44.1818C107.126 44.7254 107.208 45.2192 107.374 45.6634C107.543 46.1042 107.792 46.4555 108.12 46.7173C108.451 46.9759 108.862 47.1051 109.353 47.1051ZM119.818 44.8778V40.3636H120.991V48H119.818V46.7074H119.738C119.559 47.0952 119.281 47.425 118.903 47.6967C118.525 47.9652 118.048 48.0994 117.471 48.0994C116.994 48.0994 116.57 47.995 116.199 47.7862C115.827 47.5741 115.536 47.2559 115.324 46.8317C115.112 46.4041 115.006 45.8655 115.006 45.2159V40.3636H116.179V45.1364C116.179 45.6932 116.335 46.1373 116.646 46.4688C116.961 46.8002 117.362 46.9659 117.849 46.9659C118.141 46.9659 118.438 46.8913 118.739 46.7422C119.044 46.593 119.299 46.3643 119.505 46.0561C119.714 45.7479 119.818 45.3551 119.818 44.8778ZM124.234 45.2159L124.214 43.7642H124.453L127.794 40.3636H129.245L125.686 43.9631H125.586L124.234 45.2159ZM123.14 48V37.8182H124.314V48H123.14ZM127.993 48L125.01 44.2216L125.845 43.4062L129.484 48H127.993ZM135.449 50.8636C135.25 50.8636 135.073 50.8471 134.917 50.8139C134.761 50.7841 134.653 50.7543 134.594 50.7244L134.892 49.6903C135.177 49.7633 135.429 49.7898 135.648 49.7699C135.866 49.75 136.06 49.6522 136.229 49.4766C136.402 49.3042 136.559 49.0241 136.702 48.6364L136.92 48.0398L134.096 40.3636H135.369L137.477 46.4489H137.557L139.665 40.3636H140.937L137.696 49.1136C137.55 49.508 137.369 49.8345 137.154 50.093C136.939 50.3549 136.688 50.5488 136.403 50.6747C136.122 50.8007 135.803 50.8636 135.449 50.8636ZM144.501 48.179C144.017 48.179 143.578 48.0878 143.183 47.9055C142.789 47.7199 142.476 47.4531 142.244 47.1051C142.012 46.7538 141.896 46.3295 141.896 45.8324C141.896 45.3949 141.982 45.0402 142.154 44.7685C142.326 44.4934 142.557 44.2779 142.845 44.1222C143.134 43.9664 143.452 43.8504 143.8 43.7741C144.151 43.6946 144.504 43.6316 144.859 43.5852C145.323 43.5256 145.699 43.4808 145.987 43.451C146.279 43.4179 146.491 43.3632 146.624 43.2869C146.759 43.2107 146.827 43.0781 146.827 42.8892V42.8494C146.827 42.3589 146.693 41.9777 146.425 41.706C146.16 41.4342 145.757 41.2983 145.217 41.2983C144.656 41.2983 144.217 41.4209 143.899 41.6662C143.581 41.9115 143.357 42.1733 143.228 42.4517L142.114 42.054C142.313 41.59 142.578 41.2287 142.91 40.9702C143.245 40.7083 143.609 40.526 144.004 40.4233C144.401 40.3172 144.792 40.2642 145.177 40.2642C145.422 40.2642 145.704 40.294 146.022 40.3537C146.344 40.41 146.653 40.5277 146.952 40.7067C147.253 40.8857 147.504 41.1558 147.702 41.517C147.901 41.8783 148.001 42.3622 148.001 42.9688V48H146.827V46.9659H146.768C146.688 47.1316 146.556 47.3089 146.37 47.4979C146.184 47.6868 145.938 47.8475 145.629 47.9801C145.321 48.1127 144.945 48.179 144.501 48.179ZM144.68 47.125C145.144 47.125 145.535 47.0339 145.853 46.8516C146.174 46.6693 146.416 46.4339 146.579 46.1456C146.745 45.8572 146.827 45.554 146.827 45.2358V44.1619C146.778 44.2216 146.668 44.2763 146.499 44.326C146.334 44.3724 146.141 44.4138 145.923 44.4503C145.707 44.4834 145.497 44.5133 145.291 44.5398C145.089 44.563 144.925 44.5829 144.799 44.5994C144.494 44.6392 144.209 44.7038 143.944 44.7933C143.682 44.8795 143.47 45.0104 143.308 45.1861C143.148 45.3584 143.069 45.5937 143.069 45.892C143.069 46.2997 143.22 46.608 143.521 46.8168C143.826 47.0223 144.212 47.125 144.68 47.125ZM151.316 43.4062V48H150.142V40.3636H151.276V41.5568H151.375C151.554 41.169 151.826 40.8575 152.191 40.6222C152.555 40.3835 153.026 40.2642 153.602 40.2642C154.119 40.2642 154.572 40.3703 154.96 40.5824C155.347 40.7912 155.649 41.1094 155.865 41.5369C156.08 41.9612 156.188 42.4981 156.188 43.1477V48H155.014V43.2273C155.014 42.6274 154.859 42.16 154.547 41.8253C154.235 41.4872 153.808 41.3182 153.264 41.3182C152.89 41.3182 152.555 41.3994 152.26 41.5618C151.968 41.7242 151.738 41.9612 151.569 42.2727C151.4 42.5843 151.316 42.9621 151.316 43.4062ZM161.414 51.0227C160.847 51.0227 160.36 50.9498 159.952 50.804C159.545 50.6615 159.205 50.4725 158.933 50.2372C158.665 50.0052 158.451 49.7566 158.292 49.4915L159.227 48.8352C159.333 48.9744 159.467 49.1335 159.629 49.3125C159.792 49.4948 160.014 49.6522 160.295 49.7848C160.58 49.9207 160.953 49.9886 161.414 49.9886C162.031 49.9886 162.539 49.8395 162.94 49.5412C163.341 49.2429 163.542 48.7756 163.542 48.1392V46.5881H163.442C163.356 46.7273 163.234 46.8996 163.075 47.1051C162.919 47.3073 162.693 47.4879 162.398 47.647C162.107 47.8028 161.712 47.8807 161.215 47.8807C160.599 47.8807 160.045 47.7348 159.555 47.4432C159.067 47.1515 158.681 46.7273 158.396 46.1705C158.115 45.6136 157.974 44.9375 157.974 44.142C157.974 43.3598 158.111 42.6787 158.386 42.0987C158.661 41.5154 159.044 41.0646 159.535 40.7464C160.025 40.425 160.592 40.2642 161.235 40.2642C161.732 40.2642 162.127 40.3471 162.418 40.5128C162.713 40.6752 162.939 40.8608 163.094 41.0696C163.254 41.2751 163.376 41.4441 163.462 41.5767H163.582V40.3636H164.715V48.2188C164.715 48.875 164.566 49.4086 164.268 49.8196C163.973 50.2339 163.575 50.5372 163.075 50.7294C162.577 50.925 162.024 51.0227 161.414 51.0227ZM161.374 46.8267C161.845 46.8267 162.243 46.719 162.567 46.5036C162.892 46.2881 163.139 45.9782 163.308 45.5739C163.477 45.1695 163.562 44.6856 163.562 44.1222C163.562 43.572 163.479 43.0864 163.313 42.6655C163.147 42.2446 162.902 41.9148 162.577 41.6761C162.253 41.4375 161.852 41.3182 161.374 41.3182C160.877 41.3182 160.463 41.4441 160.131 41.696C159.803 41.9479 159.556 42.286 159.391 42.7102C159.228 43.1345 159.147 43.6051 159.147 44.1222C159.147 44.6525 159.23 45.1214 159.396 45.5291C159.565 45.9335 159.813 46.2517 160.141 46.4837C160.473 46.7124 160.884 46.8267 161.374 46.8267ZM170.8 50.8636V40.3636H171.934V41.5767H172.073C172.159 41.4441 172.279 41.2751 172.431 41.0696C172.587 40.8608 172.809 40.6752 173.097 40.5128C173.389 40.3471 173.783 40.2642 174.281 40.2642C174.924 40.2642 175.49 40.425 175.981 40.7464C176.471 41.0679 176.854 41.5237 177.129 42.1136C177.404 42.7036 177.542 43.3996 177.542 44.2017C177.542 45.0104 177.404 45.7114 177.129 46.3047C176.854 46.8946 176.473 47.352 175.986 47.6768C175.499 47.9983 174.937 48.1591 174.3 48.1591C173.81 48.1591 173.417 48.0779 173.122 47.9155C172.827 47.7498 172.6 47.5625 172.441 47.3537C172.282 47.1416 172.159 46.9659 172.073 46.8267H171.974V50.8636H170.8ZM171.954 44.1818C171.954 44.7585 172.038 45.2673 172.207 45.7081C172.376 46.1456 172.623 46.4886 172.948 46.7372C173.273 46.9825 173.671 47.1051 174.141 47.1051C174.632 47.1051 175.041 46.9759 175.369 46.7173C175.701 46.4555 175.949 46.1042 176.115 45.6634C176.284 45.2192 176.369 44.7254 176.369 44.1818C176.369 43.6449 176.286 43.161 176.12 42.7301C175.958 42.2959 175.711 41.9529 175.379 41.701C175.051 41.4458 174.638 41.3182 174.141 41.3182C173.664 41.3182 173.263 41.4392 172.938 41.6811C172.613 41.9197 172.368 42.2545 172.202 42.6854C172.037 43.1129 171.954 43.6117 171.954 44.1818ZM181.579 48.179C181.095 48.179 180.656 48.0878 180.261 47.9055C179.867 47.7199 179.554 47.4531 179.322 47.1051C179.09 46.7538 178.974 46.3295 178.974 45.8324C178.974 45.3949 179.06 45.0402 179.232 44.7685C179.405 44.4934 179.635 44.2779 179.923 44.1222C180.212 43.9664 180.53 43.8504 180.878 43.7741C181.229 43.6946 181.582 43.6316 181.937 43.5852C182.401 43.5256 182.777 43.4808 183.065 43.451C183.357 43.4179 183.569 43.3632 183.702 43.2869C183.838 43.2107 183.906 43.0781 183.906 42.8892V42.8494C183.906 42.3589 183.771 41.9777 183.503 41.706C183.238 41.4342 182.835 41.2983 182.295 41.2983C181.735 41.2983 181.295 41.4209 180.977 41.6662C180.659 41.9115 180.435 42.1733 180.306 42.4517L179.192 42.054C179.391 41.59 179.656 41.2287 179.988 40.9702C180.323 40.7083 180.687 40.526 181.082 40.4233C181.479 40.3172 181.871 40.2642 182.255 40.2642C182.5 40.2642 182.782 40.294 183.1 40.3537C183.422 40.41 183.732 40.5277 184.03 40.7067C184.331 40.8857 184.582 41.1558 184.781 41.517C184.979 41.8783 185.079 42.3622 185.079 42.9688V48H183.906V46.9659H183.846C183.766 47.1316 183.634 47.3089 183.448 47.4979C183.263 47.6868 183.016 47.8475 182.707 47.9801C182.399 48.1127 182.023 48.179 181.579 48.179ZM181.758 47.125C182.222 47.125 182.613 47.0339 182.931 46.8516C183.253 46.6693 183.495 46.4339 183.657 46.1456C183.823 45.8572 183.906 45.554 183.906 45.2358V44.1619C183.856 44.2216 183.746 44.2763 183.577 44.326C183.412 44.3724 183.219 44.4138 183.001 44.4503C182.785 44.4834 182.575 44.5133 182.369 44.5398C182.167 44.563 182.003 44.5829 181.877 44.5994C181.572 44.6392 181.287 44.7038 181.022 44.7933C180.76 44.8795 180.548 45.0104 180.386 45.1861C180.227 45.3584 180.147 45.5937 180.147 45.892C180.147 46.2997 180.298 46.608 180.599 46.8168C180.904 47.0223 181.29 47.125 181.758 47.125ZM188.394 37.8182V48H187.22V37.8182H188.394ZM190.543 48V40.3636H191.716V48H190.543ZM191.139 39.0909C190.911 39.0909 190.713 39.013 190.548 38.8572C190.385 38.7015 190.304 38.5142 190.304 38.2955C190.304 38.0767 190.385 37.8894 190.548 37.7337C190.713 37.5779 190.911 37.5 191.139 37.5C191.368 37.5 191.563 37.5779 191.726 37.7337C191.892 37.8894 191.974 38.0767 191.974 38.2955C191.974 38.5142 191.892 38.7015 191.726 38.8572C191.563 39.013 191.368 39.0909 191.139 39.0909ZM195.038 43.4062V48H193.865V40.3636H194.998V41.5568H195.098C195.277 41.169 195.549 40.8575 195.913 40.6222C196.278 40.3835 196.748 40.2642 197.325 40.2642C197.842 40.2642 198.295 40.3703 198.682 40.5824C199.07 40.7912 199.372 41.1094 199.587 41.5369C199.803 41.9612 199.91 42.4981 199.91 43.1477V48H198.737V43.2273C198.737 42.6274 198.581 42.16 198.27 41.8253C197.958 41.4872 197.531 41.3182 196.987 41.3182C196.613 41.3182 196.278 41.3994 195.983 41.5618C195.691 41.7242 195.461 41.9612 195.292 42.2727C195.123 42.5843 195.038 42.9621 195.038 43.4062ZM205.137 51.0227C204.57 51.0227 204.083 50.9498 203.675 50.804C203.267 50.6615 202.928 50.4725 202.656 50.2372C202.387 50.0052 202.174 49.7566 202.015 49.4915L202.949 48.8352C203.055 48.9744 203.19 49.1335 203.352 49.3125C203.514 49.4948 203.736 49.6522 204.018 49.7848C204.303 49.9207 204.676 49.9886 205.137 49.9886C205.753 49.9886 206.262 49.8395 206.663 49.5412C207.064 49.2429 207.265 48.7756 207.265 48.1392V46.5881H207.165C207.079 46.7273 206.956 46.8996 206.797 47.1051C206.641 47.3073 206.416 47.4879 206.121 47.647C205.829 47.8028 205.435 47.8807 204.938 47.8807C204.321 47.8807 203.768 47.7348 203.277 47.4432C202.79 47.1515 202.404 46.7273 202.119 46.1705C201.837 45.6136 201.696 44.9375 201.696 44.142C201.696 43.3598 201.834 42.6787 202.109 42.0987C202.384 41.5154 202.767 41.0646 203.257 40.7464C203.748 40.425 204.315 40.2642 204.958 40.2642C205.455 40.2642 205.849 40.3471 206.141 40.5128C206.436 40.6752 206.661 40.8608 206.817 41.0696C206.976 41.2751 207.099 41.4441 207.185 41.5767H207.304V40.3636H208.438V48.2188C208.438 48.875 208.289 49.4086 207.99 49.8196C207.695 50.2339 207.298 50.5372 206.797 50.7294C206.3 50.925 205.747 51.0227 205.137 51.0227ZM205.097 46.8267C205.568 46.8267 205.965 46.719 206.29 46.5036C206.615 46.2881 206.862 45.9782 207.031 45.5739C207.2 45.1695 207.284 44.6856 207.284 44.1222C207.284 43.572 207.202 43.0864 207.036 42.6655C206.87 42.2446 206.625 41.9148 206.3 41.6761C205.975 41.4375 205.574 41.3182 205.097 41.3182C204.6 41.3182 204.185 41.4441 203.854 41.696C203.526 41.9479 203.279 42.286 203.113 42.7102C202.951 43.1345 202.87 43.6051 202.87 44.1222C202.87 44.6525 202.953 45.1214 203.118 45.5291C203.287 45.9335 203.536 46.2517 203.864 46.4837C204.195 46.7124 204.606 46.8267 205.097 46.8267ZM68.441 68V57.8182H69.6143V61.5767H69.7137C69.7999 61.4441 69.9192 61.2751 70.0716 61.0696C70.2274 60.8608 70.4495 60.6752 70.7378 60.5128C71.0295 60.3471 71.4239 60.2642 71.9211 60.2642C72.5641 60.2642 73.1308 60.425 73.6214 60.7464C74.1119 61.0679 74.4947 61.5237 74.7698 62.1136C75.0449 62.7036 75.1824 63.3996 75.1824 64.2017C75.1824 65.0104 75.0449 65.7114 74.7698 66.3047C74.4947 66.8946 74.1135 67.352 73.6263 67.6768C73.1391 67.9983 72.5773 68.1591 71.941 68.1591C71.4504 68.1591 71.0577 68.0779 70.7627 67.9155C70.4677 67.7498 70.2407 67.5625 70.0816 67.3537C69.9225 67.1416 69.7999 66.9659 69.7137 66.8267H69.5745V68H68.441ZM69.5944 64.1818C69.5944 64.7585 69.6789 65.2673 69.8479 65.7081C70.017 66.1456 70.2639 66.4886 70.5887 66.7372C70.9135 66.9825 71.3112 67.1051 71.7819 67.1051C72.2724 67.1051 72.6817 66.9759 73.0099 66.7173C73.3413 66.4555 73.5899 66.1042 73.7556 65.6634C73.9246 65.2192 74.0091 64.7254 74.0091 64.1818C74.0091 63.6449 73.9263 63.161 73.7606 62.7301C73.5982 62.2959 73.3512 61.9529 73.0198 61.701C72.6917 61.4458 72.279 61.3182 71.7819 61.3182C71.3046 61.3182 70.9036 61.4392 70.5787 61.6811C70.2539 61.9197 70.0087 62.2545 69.843 62.6854C69.6772 63.1129 69.5944 63.6117 69.5944 64.1818ZM79.2243 68.179C78.7404 68.179 78.3013 68.0878 77.9069 67.9055C77.5125 67.7199 77.1992 67.4531 76.9672 67.1051C76.7352 66.7538 76.6192 66.3295 76.6192 65.8324C76.6192 65.3949 76.7054 65.0402 76.8778 64.7685C77.0501 64.4934 77.2805 64.2779 77.5688 64.1222C77.8572 63.9664 78.1753 63.8504 78.5233 63.7741C78.8747 63.6946 79.2277 63.6316 79.5823 63.5852C80.0463 63.5256 80.4225 63.4808 80.7108 63.451C81.0025 63.4179 81.2146 63.3632 81.3472 63.2869C81.4831 63.2107 81.551 63.0781 81.551 62.8892V62.8494C81.551 62.3589 81.4168 61.9777 81.1483 61.706C80.8832 61.4342 80.4805 61.2983 79.9403 61.2983C79.3801 61.2983 78.941 61.4209 78.6228 61.6662C78.3046 61.9115 78.0809 62.1733 77.9516 62.4517L76.838 62.054C77.0368 61.59 77.302 61.2287 77.6334 60.9702C77.9682 60.7083 78.3328 60.526 78.7272 60.4233C79.1249 60.3172 79.516 60.2642 79.9005 60.2642C80.1457 60.2642 80.4275 60.294 80.7456 60.3537C81.0671 60.41 81.377 60.5277 81.6753 60.7067C81.9769 60.8857 82.2272 61.1558 82.426 61.517C82.6249 61.8783 82.7243 62.3622 82.7243 62.9688V68H81.551V66.9659H81.4914C81.4118 67.1316 81.2793 67.3089 81.0937 67.4979C80.9081 67.6868 80.6611 67.8475 80.3529 67.9801C80.0447 68.1127 79.6685 68.179 79.2243 68.179ZM79.4033 67.125C79.8673 67.125 80.2584 67.0339 80.5766 66.8516C80.8981 66.6693 81.1401 66.4339 81.3025 66.1456C81.4682 65.8572 81.551 65.554 81.551 65.2358V64.1619C81.5013 64.2216 81.392 64.2763 81.2229 64.326C81.0572 64.3724 80.865 64.4138 80.6462 64.4503C80.4308 64.4834 80.2203 64.5133 80.0148 64.5398C79.8126 64.563 79.6486 64.5829 79.5226 64.5994C79.2177 64.6392 78.9327 64.7038 78.6675 64.7933C78.4057 64.8795 78.1936 65.0104 78.0312 65.1861C77.8721 65.3584 77.7925 65.5937 77.7925 65.892C77.7925 66.2997 77.9433 66.608 78.2449 66.8168C78.5499 67.0223 78.936 67.125 79.4033 67.125ZM86.0392 63.4062V68H84.8659V60.3636H85.9994V61.5568H86.0988C86.2778 61.169 86.5496 60.8575 86.9142 60.6222C87.2787 60.3835 87.7494 60.2642 88.3261 60.2642C88.8431 60.2642 89.2955 60.3703 89.6833 60.5824C90.0711 60.7912 90.3727 61.1094 90.5882 61.5369C90.8036 61.9612 90.9113 62.4981 90.9113 63.1477V68H89.738V63.2273C89.738 62.6274 89.5822 62.16 89.2707 61.8253C88.9591 61.4872 88.5316 61.3182 87.988 61.3182C87.6135 61.3182 87.2787 61.3994 86.9838 61.5618C86.6921 61.7242 86.4617 61.9612 86.2927 62.2727C86.1237 62.5843 86.0392 62.9621 86.0392 63.4062ZM93.5376 70.8636C93.3387 70.8636 93.1614 70.8471 93.0056 70.8139C92.8498 70.7841 92.7421 70.7543 92.6824 70.7244L92.9807 69.6903C93.2658 69.7633 93.5177 69.7898 93.7364 69.7699C93.9552 69.75 94.1491 69.6522 94.3181 69.4766C94.4904 69.3042 94.6479 69.0241 94.7904 68.6364L95.0091 68.0398L92.1853 60.3636H93.458L95.566 66.4489H95.6455L97.7535 60.3636H99.0262L95.7847 69.1136C95.6389 69.508 95.4582 69.8345 95.2428 70.093C95.0274 70.3549 94.7771 70.5488 94.4921 70.6747C94.2104 70.8007 93.8922 70.8636 93.5376 70.8636ZM102.59 68.179C102.106 68.179 101.667 68.0878 101.272 67.9055C100.878 67.7199 100.564 67.4531 100.332 67.1051C100.1 66.7538 99.9845 66.3295 99.9845 65.8324C99.9845 65.3949 100.071 65.0402 100.243 64.7685C100.415 64.4934 100.646 64.2779 100.934 64.1222C101.222 63.9664 101.541 63.8504 101.889 63.7741C102.24 63.6946 102.593 63.6316 102.948 63.5852C103.412 63.5256 103.788 63.4808 104.076 63.451C104.368 63.4179 104.58 63.3632 104.712 63.2869C104.848 63.2107 104.916 63.0781 104.916 62.8892V62.8494C104.916 62.3589 104.782 61.9777 104.514 61.706C104.248 61.4342 103.846 61.2983 103.305 61.2983C102.745 61.2983 102.306 61.4209 101.988 61.6662C101.67 61.9115 101.446 62.1733 101.317 62.4517L100.203 62.054C100.402 61.59 100.667 61.2287 100.999 60.9702C101.333 60.7083 101.698 60.526 102.092 60.4233C102.49 60.3172 102.881 60.2642 103.266 60.2642C103.511 60.2642 103.793 60.294 104.111 60.3537C104.432 60.41 104.742 60.5277 105.041 60.7067C105.342 60.8857 105.592 61.1558 105.791 61.517C105.99 61.8783 106.09 62.3622 106.09 62.9688V68H104.916V66.9659H104.857C104.777 67.1316 104.645 67.3089 104.459 67.4979C104.273 67.6868 104.026 67.8475 103.718 67.9801C103.41 68.1127 103.034 68.179 102.59 68.179ZM102.769 67.125C103.233 67.125 103.624 67.0339 103.942 66.8516C104.263 66.6693 104.505 66.4339 104.668 66.1456C104.833 65.8572 104.916 65.554 104.916 65.2358V64.1619C104.867 64.2216 104.757 64.2763 104.588 64.326C104.422 64.3724 104.23 64.4138 104.011 64.4503C103.796 64.4834 103.586 64.5133 103.38 64.5398C103.178 64.563 103.014 64.5829 102.888 64.5994C102.583 64.6392 102.298 64.7038 102.033 64.7933C101.771 64.8795 101.559 65.0104 101.396 65.1861C101.237 65.3584 101.158 65.5937 101.158 65.892C101.158 66.2997 101.309 66.608 101.61 66.8168C101.915 67.0223 102.301 67.125 102.769 67.125ZM109.325 65.2159L109.305 63.7642H109.544L112.884 60.3636H114.336L110.777 63.9631H110.677L109.325 65.2159ZM108.231 68V57.8182H109.404V68H108.231ZM113.083 68L110.1 64.2216L110.936 63.4062L114.575 68H113.083ZM123.105 60.3636V61.358H119.147V60.3636H123.105ZM120.301 58.5341H121.474V65.8125C121.474 66.1439 121.522 66.3925 121.618 66.5582C121.718 66.7206 121.844 66.83 121.996 66.8864C122.152 66.9394 122.316 66.9659 122.488 66.9659C122.618 66.9659 122.724 66.9593 122.807 66.946C122.889 66.9295 122.956 66.9162 123.005 66.9062L123.244 67.9602C123.165 67.9901 123.053 68.0199 122.911 68.0497C122.768 68.0829 122.588 68.0994 122.369 68.0994C122.038 68.0994 121.713 68.0282 121.395 67.8857C121.08 67.7431 120.818 67.526 120.609 67.2344C120.404 66.9427 120.301 66.5748 120.301 66.1307V58.5341ZM127.989 68.1591C127.254 68.1591 126.619 67.9967 126.085 67.6719C125.555 67.3438 125.146 66.8864 124.857 66.2997C124.572 65.7098 124.43 65.0237 124.43 64.2415C124.43 63.4593 124.572 62.7699 124.857 62.1733C125.146 61.5734 125.547 61.1061 126.06 60.7713C126.578 60.4332 127.181 60.2642 127.87 60.2642C128.268 60.2642 128.661 60.3305 129.048 60.4631C129.436 60.5956 129.789 60.8111 130.107 61.1094C130.426 61.4044 130.679 61.7955 130.868 62.2827C131.057 62.7699 131.151 63.3698 131.151 64.0824V64.5795H125.265V63.5653H129.958C129.958 63.1345 129.872 62.75 129.7 62.4119C129.531 62.0739 129.289 61.8071 128.974 61.6115C128.662 61.416 128.294 61.3182 127.87 61.3182C127.403 61.3182 126.998 61.4342 126.657 61.6662C126.319 61.8949 126.059 62.1932 125.877 62.5611C125.694 62.929 125.603 63.3234 125.603 63.7443V64.4205C125.603 64.9972 125.703 65.486 125.901 65.8871C126.104 66.2848 126.384 66.5881 126.742 66.7969C127.1 67.0024 127.515 67.1051 127.989 67.1051C128.298 67.1051 128.576 67.062 128.825 66.9759C129.077 66.8864 129.294 66.7538 129.476 66.5781C129.658 66.3991 129.799 66.1771 129.899 65.9119L131.032 66.2301C130.913 66.6146 130.712 66.9527 130.43 67.2443C130.149 67.5327 129.801 67.758 129.386 67.9205C128.972 68.0795 128.506 68.1591 127.989 68.1591ZM132.936 68V60.3636H134.07V61.517H134.149C134.288 61.1392 134.54 60.8326 134.905 60.5973C135.27 60.362 135.68 60.2443 136.138 60.2443C136.224 60.2443 136.332 60.246 136.461 60.2493C136.59 60.2526 136.688 60.2576 136.754 60.2642V61.4574C136.715 61.4474 136.623 61.4325 136.481 61.4126C136.342 61.3894 136.194 61.3778 136.038 61.3778C135.667 61.3778 135.336 61.4557 135.044 61.6115C134.756 61.764 134.527 61.9761 134.358 62.2479C134.192 62.5163 134.109 62.8229 134.109 63.1676V68H132.936ZM138.145 60.3636H139.318V68.5568C139.318 69.0275 139.237 69.4351 139.075 69.7798C138.916 70.1245 138.674 70.3913 138.349 70.5803C138.027 70.7692 137.621 70.8636 137.131 70.8636C137.091 70.8636 137.051 70.8636 137.012 70.8636C136.972 70.8636 136.932 70.8636 136.892 70.8636V69.7699C136.932 69.7699 136.969 69.7699 137.002 69.7699C137.035 69.7699 137.071 69.7699 137.111 69.7699C137.469 69.7699 137.731 69.6638 137.897 69.4517C138.062 69.2429 138.145 68.9446 138.145 68.5568V60.3636ZM138.722 59.0909C138.493 59.0909 138.296 59.013 138.13 58.8572C137.968 58.7015 137.887 58.5142 137.887 58.2955C137.887 58.0767 137.968 57.8894 138.13 57.7337C138.296 57.5779 138.493 57.5 138.722 57.5C138.951 57.5 139.146 57.5779 139.309 57.7337C139.474 57.8894 139.557 58.0767 139.557 58.2955C139.557 58.5142 139.474 58.7015 139.309 58.8572C139.146 59.013 138.951 59.0909 138.722 59.0909ZM146.28 64.8778V60.3636H147.453V68H146.28V66.7074H146.2C146.021 67.0952 145.743 67.425 145.365 67.6967C144.987 67.9652 144.51 68.0994 143.933 68.0994C143.456 68.0994 143.032 67.995 142.661 67.7862C142.289 67.5741 141.998 67.2559 141.786 66.8317C141.573 66.4041 141.467 65.8655 141.467 65.2159V60.3636H142.641V65.1364C142.641 65.6932 142.796 66.1373 143.108 66.4688C143.423 66.8002 143.824 66.9659 144.311 66.9659C144.603 66.9659 144.899 66.8913 145.201 66.7422C145.506 66.593 145.761 66.3643 145.967 66.0561C146.176 65.7479 146.28 65.3551 146.28 64.8778ZM151.849 68.179C151.365 68.179 150.926 68.0878 150.532 67.9055C150.137 67.7199 149.824 67.4531 149.592 67.1051C149.36 66.7538 149.244 66.3295 149.244 65.8324C149.244 65.3949 149.33 65.0402 149.503 64.7685C149.675 64.4934 149.905 64.2779 150.194 64.1222C150.482 63.9664 150.8 63.8504 151.148 63.7741C151.5 63.6946 151.853 63.6316 152.207 63.5852C152.671 63.5256 153.047 63.4808 153.336 63.451C153.628 63.4179 153.84 63.3632 153.972 63.2869C154.108 63.2107 154.176 63.0781 154.176 62.8892V62.8494C154.176 62.3589 154.042 61.9777 153.773 61.706C153.508 61.4342 153.105 61.2983 152.565 61.2983C152.005 61.2983 151.566 61.4209 151.248 61.6662C150.93 61.9115 150.706 62.1733 150.577 62.4517L149.463 62.054C149.662 61.59 149.927 61.2287 150.258 60.9702C150.593 60.7083 150.958 60.526 151.352 60.4233C151.75 60.3172 152.141 60.2642 152.525 60.2642C152.771 60.2642 153.052 60.294 153.371 60.3537C153.692 60.41 154.002 60.5277 154.3 60.7067C154.602 60.8857 154.852 61.1558 155.051 61.517C155.25 61.8783 155.349 62.3622 155.349 62.9688V68H154.176V66.9659H154.116C154.037 67.1316 153.904 67.3089 153.719 67.4979C153.533 67.6868 153.286 67.8475 152.978 67.9801C152.67 68.1127 152.293 68.179 151.849 68.179ZM152.028 67.125C152.492 67.125 152.883 67.0339 153.202 66.8516C153.523 66.6693 153.765 66.4339 153.927 66.1456C154.093 65.8572 154.176 65.554 154.176 65.2358V64.1619C154.126 64.2216 154.017 64.2763 153.848 64.326C153.682 64.3724 153.49 64.4138 153.271 64.4503C153.056 64.4834 152.845 64.5133 152.64 64.5398C152.438 64.563 152.274 64.5829 152.148 64.5994C151.843 64.6392 151.558 64.7038 151.293 64.7933C151.031 64.8795 150.819 65.0104 150.656 65.1861C150.497 65.3584 150.418 65.5937 150.418 65.892C150.418 66.2997 150.568 66.608 150.87 66.8168C151.175 67.0223 151.561 67.125 152.028 67.125ZM158.664 57.8182V68H157.491V57.8182H158.664ZM167.634 68.1591C166.998 68.1591 166.436 67.9983 165.949 67.6768C165.462 67.352 165.08 66.8946 164.805 66.3047C164.53 65.7114 164.393 65.0104 164.393 64.2017C164.393 63.3996 164.53 62.7036 164.805 62.1136C165.08 61.5237 165.463 61.0679 165.954 60.7464C166.444 60.425 167.011 60.2642 167.654 60.2642C168.151 60.2642 168.544 60.3471 168.832 60.5128C169.124 60.6752 169.346 60.8608 169.498 61.0696C169.654 61.2751 169.775 61.4441 169.861 61.5767H169.961V57.8182H171.134V68H170.001V66.8267H169.861C169.775 66.9659 169.653 67.1416 169.494 67.3537C169.334 67.5625 169.107 67.7498 168.812 67.9155C168.517 68.0779 168.125 68.1591 167.634 68.1591ZM167.793 67.1051C168.264 67.1051 168.662 66.9825 168.986 66.7372C169.311 66.4886 169.558 66.1456 169.727 65.7081C169.896 65.2673 169.981 64.7585 169.981 64.1818C169.981 63.6117 169.898 63.1129 169.732 62.6854C169.566 62.2545 169.321 61.9197 168.996 61.6811C168.672 61.4392 168.271 61.3182 167.793 61.3182C167.296 61.3182 166.882 61.4458 166.55 61.701C166.222 61.9529 165.975 62.2959 165.81 62.7301C165.647 63.161 165.566 63.6449 165.566 64.1818C165.566 64.7254 165.649 65.2192 165.815 65.6634C165.984 66.1042 166.232 66.4555 166.56 66.7173C166.892 66.9759 167.303 67.1051 167.793 67.1051ZM175.693 68.179C175.209 68.179 174.77 68.0878 174.376 67.9055C173.981 67.7199 173.668 67.4531 173.436 67.1051C173.204 66.7538 173.088 66.3295 173.088 65.8324C173.088 65.3949 173.174 65.0402 173.347 64.7685C173.519 64.4934 173.749 64.2779 174.038 64.1222C174.326 63.9664 174.644 63.8504 174.992 63.7741C175.343 63.6946 175.696 63.6316 176.051 63.5852C176.515 63.5256 176.891 63.4808 177.18 63.451C177.471 63.4179 177.683 63.3632 177.816 63.2869C177.952 63.2107 178.02 63.0781 178.02 62.8892V62.8494C178.02 62.3589 177.886 61.9777 177.617 61.706C177.352 61.4342 176.949 61.2983 176.409 61.2983C175.849 61.2983 175.41 61.4209 175.092 61.6662C174.773 61.9115 174.55 62.1733 174.42 62.4517L173.307 62.054C173.506 61.59 173.771 61.2287 174.102 60.9702C174.437 60.7083 174.802 60.526 175.196 60.4233C175.594 60.3172 175.985 60.2642 176.369 60.2642C176.614 60.2642 176.896 60.294 177.214 60.3537C177.536 60.41 177.846 60.5277 178.144 60.7067C178.446 60.8857 178.696 61.1558 178.895 61.517C179.094 61.8783 179.193 62.3622 179.193 62.9688V68H178.02V66.9659H177.96C177.881 67.1316 177.748 67.3089 177.562 67.4979C177.377 67.6868 177.13 67.8475 176.822 67.9801C176.513 68.1127 176.137 68.179 175.693 68.179ZM175.872 67.125C176.336 67.125 176.727 67.0339 177.045 66.8516C177.367 66.6693 177.609 66.4339 177.771 66.1456C177.937 65.8572 178.02 65.554 178.02 65.2358V64.1619C177.97 64.2216 177.861 64.2763 177.692 64.326C177.526 64.3724 177.334 64.4138 177.115 64.4503C176.9 64.4834 176.689 64.5133 176.484 64.5398C176.281 64.563 176.117 64.5829 175.991 64.5994C175.686 64.6392 175.401 64.7038 175.136 64.7933C174.874 64.8795 174.662 65.0104 174.5 65.1861C174.341 65.3584 174.261 65.5937 174.261 65.892C174.261 66.2997 174.412 66.608 174.714 66.8168C175.019 67.0223 175.405 67.125 175.872 67.125ZM181.335 68V60.3636H182.468V61.517H182.548C182.687 61.1392 182.939 60.8326 183.303 60.5973C183.668 60.362 184.079 60.2443 184.536 60.2443C184.622 60.2443 184.73 60.246 184.859 60.2493C184.989 60.2526 185.087 60.2576 185.153 60.2642V61.4574C185.113 61.4474 185.022 61.4325 184.879 61.4126C184.74 61.3894 184.593 61.3778 184.437 61.3778C184.066 61.3778 183.734 61.4557 183.443 61.6115C183.154 61.764 182.926 61.9761 182.756 62.2479C182.591 62.5163 182.508 62.8229 182.508 63.1676V68H181.335ZM186.544 68V60.3636H187.717V68H186.544ZM187.14 59.0909C186.911 59.0909 186.714 59.013 186.549 58.8572C186.386 58.7015 186.305 58.5142 186.305 58.2955C186.305 58.0767 186.386 57.8894 186.549 57.7337C186.714 57.5779 186.911 57.5 187.14 57.5C187.369 57.5 187.564 57.5779 187.727 57.7337C187.893 57.8894 187.975 58.0767 187.975 58.2955C187.975 58.5142 187.893 58.7015 187.727 58.8572C187.564 59.013 187.369 59.0909 187.14 59.0909ZM45.2398 82.0739L44.1858 82.3722C44.1195 82.1965 44.0218 82.0258 43.8925 81.8601C43.7665 81.6911 43.5942 81.5518 43.3754 81.4425C43.1567 81.3331 42.8766 81.2784 42.5352 81.2784C42.0679 81.2784 41.6785 81.3861 41.3669 81.6016C41.0587 81.8137 40.9046 82.0838 40.9046 82.4119C40.9046 82.7036 41.0106 82.9339 41.2227 83.103C41.4349 83.272 41.7663 83.4129 42.2171 83.5256L43.3506 83.804C44.0334 83.9697 44.5421 84.2232 44.8769 84.5646C45.2116 84.9027 45.379 85.3385 45.379 85.8722C45.379 86.3097 45.253 86.7008 45.0012 87.0455C44.7526 87.3902 44.4046 87.6619 43.9571 87.8608C43.5097 88.0597 42.9893 88.1591 42.396 88.1591C41.6172 88.1591 40.9725 87.9901 40.4621 87.652C39.9517 87.3139 39.6285 86.8201 39.4926 86.1705L40.6063 85.892C40.7123 86.303 40.9128 86.6113 41.2078 86.8168C41.5061 87.0223 41.8956 87.125 42.3762 87.125C42.923 87.125 43.3572 87.009 43.6787 86.777C44.0035 86.5417 44.1659 86.2599 44.1659 85.9318C44.1659 85.6667 44.0731 85.4446 43.8875 85.2656C43.7019 85.0833 43.4169 84.9474 43.0324 84.858L41.7597 84.5597C41.0603 84.3939 40.5466 84.1371 40.2185 83.7891C39.8937 83.4377 39.7313 82.9986 39.7313 82.4716C39.7313 82.0407 39.8522 81.6596 40.0942 81.3281C40.3395 80.9967 40.6726 80.7365 41.0935 80.5476C41.5177 80.3587 41.9983 80.2642 42.5352 80.2642C43.2909 80.2642 43.8842 80.4299 44.3151 80.7614C44.7493 81.0928 45.0575 81.5303 45.2398 82.0739ZM50.3469 88.1591C49.6111 88.1591 48.9764 87.9967 48.4427 87.6719C47.9124 87.3438 47.5031 86.8864 47.2148 86.2997C46.9297 85.7098 46.7872 85.0237 46.7872 84.2415C46.7872 83.4593 46.9297 82.7699 47.2148 82.1733C47.5031 81.5734 47.9041 81.1061 48.4179 80.7713C48.9349 80.4332 49.5381 80.2642 50.2275 80.2642C50.6253 80.2642 51.018 80.3305 51.4058 80.4631C51.7936 80.5956 52.1466 80.8111 52.4648 81.1094C52.7829 81.4044 53.0365 81.7955 53.2254 82.2827C53.4143 82.7699 53.5088 83.3698 53.5088 84.0824V84.5795H47.6224V83.5653H52.3156C52.3156 83.1345 52.2294 82.75 52.0571 82.4119C51.8881 82.0739 51.6461 81.8071 51.3312 81.6115C51.0197 81.416 50.6518 81.3182 50.2275 81.3182C49.7602 81.3182 49.3559 81.4342 49.0145 81.6662C48.6764 81.8949 48.4162 82.1932 48.2339 82.5611C48.0516 82.929 47.9605 83.3234 47.9605 83.7443V84.4205C47.9605 84.9972 48.0599 85.486 48.2588 85.8871C48.461 86.2848 48.741 86.5881 49.099 86.7969C49.4569 87.0024 49.8729 87.1051 50.3469 87.1051C50.6551 87.1051 50.9335 87.062 51.1821 86.9759C51.434 86.8864 51.6511 86.7538 51.8334 86.5781C52.0157 86.3991 52.1565 86.1771 52.2559 85.9119L53.3895 86.2301C53.2702 86.6146 53.0696 86.9527 52.7879 87.2443C52.5062 87.5327 52.1582 87.758 51.7439 87.9205C51.3296 88.0795 50.8639 88.1591 50.3469 88.1591ZM56.4669 77.8182V88H55.2936V77.8182H56.4669ZM63.4284 84.8778V80.3636H64.6017V88H63.4284V86.7074H63.3488C63.1698 87.0952 62.8914 87.425 62.5136 87.6967C62.1357 87.9652 61.6585 88.0994 61.0818 88.0994C60.6045 88.0994 60.1802 87.995 59.809 87.7862C59.4378 87.5741 59.1462 87.2559 58.934 86.8317C58.7219 86.4041 58.6159 85.8655 58.6159 85.2159V80.3636H59.7892V85.1364C59.7892 85.6932 59.9449 86.1373 60.2565 86.4688C60.5713 86.8002 60.9724 86.9659 61.4596 86.9659C61.7513 86.9659 62.0479 86.8913 62.3495 86.7422C62.6544 86.593 62.9097 86.3643 63.1151 86.0561C63.324 85.7479 63.4284 85.3551 63.4284 84.8778ZM66.7506 88V80.3636H67.8841V81.517H67.9637C68.1029 81.1392 68.3548 80.8326 68.7194 80.5973C69.084 80.362 69.4949 80.2443 69.9523 80.2443C70.0385 80.2443 70.1462 80.246 70.2755 80.2493C70.4047 80.2526 70.5025 80.2576 70.5688 80.2642V81.4574C70.529 81.4474 70.4379 81.4325 70.2954 81.4126C70.1562 81.3894 70.0087 81.3778 69.8529 81.3778C69.4817 81.3778 69.1502 81.4557 68.8586 81.6115C68.5702 81.764 68.3415 81.9761 68.1725 82.2479C68.0068 82.5163 67.9239 82.8229 67.9239 83.1676V88H66.7506ZM76.7721 84.8778V80.3636H77.9454V88H76.7721V86.7074H76.6926C76.5136 87.0952 76.2352 87.425 75.8573 87.6967C75.4795 87.9652 75.0022 88.0994 74.4255 88.0994C73.9482 88.0994 73.524 87.995 73.1528 87.7862C72.7816 87.5741 72.4899 87.2559 72.2778 86.8317C72.0657 86.4041 71.9596 85.8655 71.9596 85.2159V80.3636H73.1329V85.1364C73.1329 85.6932 73.2887 86.1373 73.6002 86.4688C73.9151 86.8002 74.3161 86.9659 74.8034 86.9659C75.095 86.9659 75.3917 86.8913 75.6933 86.7422C75.9982 86.593 76.2534 86.3643 76.4589 86.0561C76.6677 85.7479 76.7721 85.3551 76.7721 84.8778ZM81.2677 83.4062V88H80.0944V77.8182H81.2677V81.5568H81.3671C81.5461 81.1624 81.8145 80.8492 82.1725 80.6172C82.5338 80.3819 83.0144 80.2642 83.6143 80.2642C84.1346 80.2642 84.5903 80.3686 84.9814 80.5774C85.3725 80.7829 85.6758 81.0994 85.8912 81.527C86.11 81.9512 86.2194 82.4915 86.2194 83.1477V88H85.0461V83.2273C85.0461 82.6207 84.8886 82.1518 84.5738 81.8203C84.2622 81.4856 83.8297 81.3182 83.2762 81.3182C82.8917 81.3182 82.547 81.3994 82.2421 81.5618C81.9405 81.7242 81.7019 81.9612 81.5262 82.2727C81.3538 82.5843 81.2677 82.9621 81.2677 83.4062ZM99.1443 77.8182H100.377V84.5597C100.377 85.2557 100.213 85.8771 99.885 86.424C99.5602 86.9676 99.1012 87.3968 98.5079 87.7116C97.9146 88.0232 97.2186 88.179 96.4198 88.179C95.6211 88.179 94.925 88.0232 94.3318 87.7116C93.7385 87.3968 93.2778 86.9676 92.9497 86.424C92.6249 85.8771 92.4624 85.2557 92.4624 84.5597V77.8182H93.6954V84.4602C93.6954 84.9574 93.8048 85.3999 94.0235 85.7876C94.2423 86.1721 94.5538 86.4754 94.9582 86.6974C95.3659 86.9162 95.8531 87.0256 96.4198 87.0256C96.9866 87.0256 97.4738 86.9162 97.8815 86.6974C98.2892 86.4754 98.6007 86.1721 98.8161 85.7876C99.0349 85.3999 99.1443 84.9574 99.1443 84.4602V77.8182ZM102.839 77.8182H104.311L107.771 86.2699H107.891L111.351 77.8182H112.822V88H111.669V80.2642H111.57L108.388 88H107.274L104.092 80.2642H103.993V88H102.839V77.8182ZM115.294 88V77.8182H116.527V82.8693H116.647L121.221 77.8182H122.831L118.556 82.4119L122.831 88H121.34L117.8 83.267L116.527 84.6989V88H115.294ZM128.961 90.8636C128.763 90.8636 128.585 90.8471 128.429 90.8139C128.274 90.7841 128.166 90.7543 128.106 90.7244L128.405 89.6903C128.69 89.7633 128.941 89.7898 129.16 89.7699C129.379 89.75 129.573 89.6522 129.742 89.4766C129.914 89.3042 130.072 89.0241 130.214 88.6364L130.433 88.0398L127.609 80.3636H128.882L130.99 86.4489H131.069L133.177 80.3636H134.45L131.209 89.1136C131.063 89.508 130.882 89.8345 130.667 90.093C130.451 90.3549 130.201 90.5488 129.916 90.6747C129.634 90.8007 129.316 90.8636 128.961 90.8636ZM138.013 88.179C137.53 88.179 137.09 88.0878 136.696 87.9055C136.302 87.7199 135.988 87.4531 135.756 87.1051C135.524 86.7538 135.408 86.3295 135.408 85.8324C135.408 85.3949 135.494 85.0402 135.667 84.7685C135.839 84.4934 136.07 84.2779 136.358 84.1222C136.646 83.9664 136.964 83.8504 137.312 83.7741C137.664 83.6946 138.017 83.6316 138.371 83.5852C138.835 83.5256 139.212 83.4808 139.5 83.451C139.792 83.4179 140.004 83.3632 140.136 83.2869C140.272 83.2107 140.34 83.0781 140.34 82.8892V82.8494C140.34 82.3589 140.206 81.9777 139.937 81.706C139.672 81.4342 139.27 81.2983 138.729 81.2983C138.169 81.2983 137.73 81.4209 137.412 81.6662C137.094 81.9115 136.87 82.1733 136.741 82.4517L135.627 82.054C135.826 81.59 136.091 81.2287 136.422 80.9702C136.757 80.7083 137.122 80.526 137.516 80.4233C137.914 80.3172 138.305 80.2642 138.69 80.2642C138.935 80.2642 139.217 80.294 139.535 80.3537C139.856 80.41 140.166 80.5277 140.464 80.7067C140.766 80.8857 141.016 81.1558 141.215 81.517C141.414 81.8783 141.513 82.3622 141.513 82.9688V88H140.34V86.9659H140.28C140.201 87.1316 140.068 87.3089 139.883 87.4979C139.697 87.6868 139.45 87.8475 139.142 87.9801C138.834 88.1127 138.458 88.179 138.013 88.179ZM138.192 87.125C138.656 87.125 139.047 87.0339 139.366 86.8516C139.687 86.6693 139.929 86.4339 140.092 86.1456C140.257 85.8572 140.34 85.554 140.34 85.2358V84.1619C140.29 84.2216 140.181 84.2763 140.012 84.326C139.846 84.3724 139.654 84.4138 139.435 84.4503C139.22 84.4834 139.009 84.5133 138.804 84.5398C138.602 84.563 138.438 84.5829 138.312 84.5994C138.007 84.6392 137.722 84.7038 137.457 84.7933C137.195 84.8795 136.983 85.0104 136.82 85.1861C136.661 85.3584 136.582 85.5937 136.582 85.892C136.582 86.2997 136.732 86.608 137.034 86.8168C137.339 87.0223 137.725 87.125 138.192 87.125ZM144.828 83.4062V88H143.655V80.3636H144.788V81.5568H144.888C145.067 81.169 145.339 80.8575 145.703 80.6222C146.068 80.3835 146.538 80.2642 147.115 80.2642C147.632 80.2642 148.085 80.3703 148.472 80.5824C148.86 80.7912 149.162 81.1094 149.377 81.5369C149.593 81.9612 149.7 82.4981 149.7 83.1477V88H148.527V83.2273C148.527 82.6274 148.371 82.16 148.06 81.8253C147.748 81.4872 147.321 81.3182 146.777 81.3182C146.403 81.3182 146.068 81.3994 145.773 81.5618C145.481 81.7242 145.251 81.9612 145.082 82.2727C144.913 82.5843 144.828 82.9621 144.828 83.4062ZM154.927 91.0227C154.36 91.0227 153.873 90.9498 153.465 90.804C153.057 90.6615 152.718 90.4725 152.446 90.2372C152.177 90.0052 151.964 89.7566 151.805 89.4915L152.739 88.8352C152.845 88.9744 152.98 89.1335 153.142 89.3125C153.304 89.4948 153.526 89.6522 153.808 89.7848C154.093 89.9207 154.466 89.9886 154.927 89.9886C155.543 89.9886 156.052 89.8395 156.453 89.5412C156.854 89.2429 157.055 88.7756 157.055 88.1392V86.5881H156.955C156.869 86.7273 156.746 86.8996 156.587 87.1051C156.431 87.3073 156.206 87.4879 155.911 87.647C155.619 87.8028 155.225 87.8807 154.728 87.8807C154.111 87.8807 153.558 87.7348 153.067 87.4432C152.58 87.1515 152.194 86.7273 151.909 86.1705C151.627 85.6136 151.486 84.9375 151.486 84.142C151.486 83.3598 151.624 82.6787 151.899 82.0987C152.174 81.5154 152.557 81.0646 153.047 80.7464C153.538 80.425 154.105 80.2642 154.748 80.2642C155.245 80.2642 155.639 80.3471 155.931 80.5128C156.226 80.6752 156.451 80.8608 156.607 81.0696C156.766 81.2751 156.889 81.4441 156.975 81.5767H157.094V80.3636H158.228V88.2188C158.228 88.875 158.079 89.4086 157.78 89.8196C157.485 90.2339 157.088 90.5372 156.587 90.7294C156.09 90.925 155.537 91.0227 154.927 91.0227ZM154.887 86.8267C155.358 86.8267 155.755 86.719 156.08 86.5036C156.405 86.2881 156.652 85.9782 156.821 85.5739C156.99 85.1695 157.074 84.6856 157.074 84.1222C157.074 83.572 156.992 83.0864 156.826 82.6655C156.66 82.2446 156.415 81.9148 156.09 81.6761C155.765 81.4375 155.364 81.3182 154.887 81.3182C154.39 81.3182 153.976 81.4441 153.644 81.696C153.316 81.9479 153.069 82.286 152.903 82.7102C152.741 83.1345 152.66 83.6051 152.66 84.1222C152.66 84.6525 152.743 85.1214 152.908 85.5291C153.077 85.9335 153.326 86.2517 153.654 86.4837C153.985 86.7124 154.396 86.8267 154.887 86.8267ZM167.634 80.3636V81.358H163.677V80.3636H167.634ZM164.83 78.5341H166.003V85.8125C166.003 86.1439 166.052 86.3925 166.148 86.5582C166.247 86.7206 166.373 86.83 166.525 86.8864C166.681 86.9394 166.845 86.9659 167.018 86.9659C167.147 86.9659 167.253 86.9593 167.336 86.946C167.419 86.9295 167.485 86.9162 167.535 86.9062L167.773 87.9602C167.694 87.9901 167.583 88.0199 167.44 88.0497C167.298 88.0829 167.117 88.0994 166.898 88.0994C166.567 88.0994 166.242 88.0282 165.924 87.8857C165.609 87.7431 165.347 87.526 165.138 87.2344C164.933 86.9427 164.83 86.5748 164.83 86.1307V78.5341ZM172.519 88.1591C171.783 88.1591 171.148 87.9967 170.615 87.6719C170.084 87.3438 169.675 86.8864 169.387 86.2997C169.102 85.7098 168.959 85.0237 168.959 84.2415C168.959 83.4593 169.102 82.7699 169.387 82.1733C169.675 81.5734 170.076 81.1061 170.59 80.7713C171.107 80.4332 171.71 80.2642 172.399 80.2642C172.797 80.2642 173.19 80.3305 173.578 80.4631C173.965 80.5956 174.318 80.8111 174.637 81.1094C174.955 81.4044 175.208 81.7955 175.397 82.2827C175.586 82.7699 175.681 83.3698 175.681 84.0824V84.5795H169.794V83.5653H174.487C174.487 83.1345 174.401 82.75 174.229 82.4119C174.06 82.0739 173.818 81.8071 173.503 81.6115C173.192 81.416 172.824 81.3182 172.399 81.3182C171.932 81.3182 171.528 81.4342 171.186 81.6662C170.848 81.8949 170.588 82.1932 170.406 82.5611C170.224 82.929 170.132 83.3234 170.132 83.7443V84.4205C170.132 84.9972 170.232 85.486 170.431 85.8871C170.633 86.2848 170.913 86.5881 171.271 86.7969C171.629 87.0024 172.045 87.1051 172.519 87.1051C172.827 87.1051 173.105 87.062 173.354 86.9759C173.606 86.8864 173.823 86.7538 174.005 86.5781C174.188 86.3991 174.328 86.1771 174.428 85.9119L175.561 86.2301C175.442 86.6146 175.242 86.9527 174.96 87.2443C174.678 87.5327 174.33 87.758 173.916 87.9205C173.501 88.0795 173.036 88.1591 172.519 88.1591ZM177.465 88V80.3636H178.599V81.517H178.679C178.818 81.1392 179.07 80.8326 179.434 80.5973C179.799 80.362 180.21 80.2443 180.667 80.2443C180.753 80.2443 180.861 80.246 180.99 80.2493C181.12 80.2526 181.217 80.2576 181.284 80.2642V81.4574C181.244 81.4474 181.153 81.4325 181.01 81.4126C180.871 81.3894 180.724 81.3778 180.568 81.3778C180.197 81.3778 179.865 81.4557 179.573 81.6115C179.285 81.764 179.056 81.9761 178.887 82.2479C178.722 82.5163 178.639 82.8229 178.639 83.1676V88H177.465ZM185.326 88.1591C184.689 88.1591 184.127 87.9983 183.64 87.6768C183.153 87.352 182.772 86.8946 182.497 86.3047C182.222 85.7114 182.084 85.0104 182.084 84.2017C182.084 83.3996 182.222 82.7036 182.497 82.1136C182.772 81.5237 183.155 81.0679 183.645 80.7464C184.136 80.425 184.702 80.2642 185.345 80.2642C185.843 80.2642 186.235 80.3471 186.524 80.5128C186.815 80.6752 187.037 80.8608 187.19 81.0696C187.346 81.2751 187.467 81.4441 187.553 81.5767H187.652V77.8182H188.826V88H187.692V86.8267H187.553C187.467 86.9659 187.344 87.1416 187.185 87.3537C187.026 87.5625 186.799 87.7498 186.504 87.9155C186.209 88.0779 185.816 88.1591 185.326 88.1591ZM185.485 87.1051C185.955 87.1051 186.353 86.9825 186.678 86.7372C187.003 86.4886 187.25 86.1456 187.419 85.7081C187.588 85.2673 187.672 84.7585 187.672 84.1818C187.672 83.6117 187.589 83.1129 187.424 82.6854C187.258 82.2545 187.013 81.9197 186.688 81.6811C186.363 81.4392 185.962 81.3182 185.485 81.3182C184.987 81.3182 184.573 81.4458 184.242 81.701C183.914 81.9529 183.667 82.2959 183.501 82.7301C183.339 83.161 183.257 83.6449 183.257 84.1818C183.257 84.7254 183.34 85.2192 183.506 85.6634C183.675 86.1042 183.924 86.4555 184.252 86.7173C184.583 86.9759 184.994 87.1051 185.485 87.1051ZM193.384 88.179C192.901 88.179 192.461 88.0878 192.067 87.9055C191.673 87.7199 191.359 87.4531 191.127 87.1051C190.895 86.7538 190.779 86.3295 190.779 85.8324C190.779 85.3949 190.866 85.0402 191.038 84.7685C191.21 84.4934 191.441 84.2779 191.729 84.1222C192.017 83.9664 192.335 83.8504 192.684 83.7741C193.035 83.6946 193.388 83.6316 193.742 83.5852C194.206 83.5256 194.583 83.4808 194.871 83.451C195.163 83.4179 195.375 83.3632 195.507 83.2869C195.643 83.2107 195.711 83.0781 195.711 82.8892V82.8494C195.711 82.3589 195.577 81.9777 195.309 81.706C195.043 81.4342 194.641 81.2983 194.1 81.2983C193.54 81.2983 193.101 81.4209 192.783 81.6662C192.465 81.9115 192.241 82.1733 192.112 82.4517L190.998 82.054C191.197 81.59 191.462 81.2287 191.794 80.9702C192.128 80.7083 192.493 80.526 192.887 80.4233C193.285 80.3172 193.676 80.2642 194.061 80.2642C194.306 80.2642 194.588 80.294 194.906 80.3537C195.227 80.41 195.537 80.5277 195.835 80.7067C196.137 80.8857 196.387 81.1558 196.586 81.517C196.785 81.8783 196.884 82.3622 196.884 82.9688V88H195.711V86.9659H195.652C195.572 87.1316 195.439 87.3089 195.254 87.4979C195.068 87.6868 194.821 87.8475 194.513 87.9801C194.205 88.1127 193.829 88.179 193.384 88.179ZM193.563 87.125C194.027 87.125 194.419 87.0339 194.737 86.8516C195.058 86.6693 195.3 86.4339 195.463 86.1456C195.628 85.8572 195.711 85.554 195.711 85.2358V84.1619C195.661 84.2216 195.552 84.2763 195.383 84.326C195.217 84.3724 195.025 84.4138 194.806 84.4503C194.591 84.4834 194.38 84.5133 194.175 84.5398C193.973 84.563 193.809 84.5829 193.683 84.5994C193.378 84.6392 193.093 84.7038 192.828 84.7933C192.566 84.8795 192.354 85.0104 192.191 85.1861C192.032 85.3584 191.953 85.5937 191.953 85.892C191.953 86.2997 192.103 86.608 192.405 86.8168C192.71 87.0223 193.096 87.125 193.563 87.125ZM202.427 80.3636V81.358H198.31V80.3636H202.427ZM199.543 88V79.3097C199.543 78.8722 199.646 78.5076 199.851 78.2159C200.057 77.9242 200.324 77.7055 200.652 77.5597C200.98 77.4138 201.326 77.3409 201.691 77.3409C201.979 77.3409 202.214 77.3641 202.397 77.4105C202.579 77.4569 202.715 77.5 202.804 77.5398L202.466 78.554C202.407 78.5341 202.324 78.5092 202.218 78.4794C202.115 78.4496 201.979 78.4347 201.81 78.4347C201.422 78.4347 201.142 78.5324 200.97 78.728C200.801 78.9235 200.716 79.2102 200.716 79.5881V88H199.543ZM207.392 80.3636V81.358H203.435V80.3636H207.392ZM204.588 78.5341H205.761V85.8125C205.761 86.1439 205.809 86.3925 205.905 86.5582C206.005 86.7206 206.131 86.83 206.283 86.8864C206.439 86.9394 206.603 86.9659 206.775 86.9659C206.905 86.9659 207.011 86.9593 207.094 86.946C207.177 86.9295 207.243 86.9162 207.293 86.9062L207.531 87.9602C207.452 87.9901 207.341 88.0199 207.198 88.0497C207.056 88.0829 206.875 88.0994 206.656 88.0994C206.325 88.0994 206 88.0282 205.682 87.8857C205.367 87.7431 205.105 87.526 204.896 87.2344C204.691 86.9427 204.588 86.5748 204.588 86.1307V78.5341ZM211.404 88.179C210.92 88.179 210.481 88.0878 210.087 87.9055C209.692 87.7199 209.379 87.4531 209.147 87.1051C208.915 86.7538 208.799 86.3295 208.799 85.8324C208.799 85.3949 208.885 85.0402 209.057 84.7685C209.23 84.4934 209.46 84.2779 209.748 84.1222C210.037 83.9664 210.355 83.8504 210.703 83.7741C211.054 83.6946 211.407 83.6316 211.762 83.5852C212.226 83.5256 212.602 83.4808 212.891 83.451C213.182 83.4179 213.394 83.3632 213.527 83.2869C213.663 83.2107 213.731 83.0781 213.731 82.8892V82.8494C213.731 82.3589 213.597 81.9777 213.328 81.706C213.063 81.4342 212.66 81.2983 212.12 81.2983C211.56 81.2983 211.121 81.4209 210.802 81.6662C210.484 81.9115 210.261 82.1733 210.131 82.4517L209.018 82.054C209.217 81.59 209.482 81.2287 209.813 80.9702C210.148 80.7083 210.512 80.526 210.907 80.4233C211.305 80.3172 211.696 80.2642 212.08 80.2642C212.325 80.2642 212.607 80.294 212.925 80.3537C213.247 80.41 213.557 80.5277 213.855 80.7067C214.157 80.8857 214.407 81.1558 214.606 81.517C214.805 81.8783 214.904 82.3622 214.904 82.9688V88H213.731V86.9659H213.671C213.592 87.1316 213.459 87.3089 213.273 87.4979C213.088 87.6868 212.841 87.8475 212.533 87.9801C212.224 88.1127 211.848 88.179 211.404 88.179ZM211.583 87.125C212.047 87.125 212.438 87.0339 212.756 86.8516C213.078 86.6693 213.32 86.4339 213.482 86.1456C213.648 85.8572 213.731 85.554 213.731 85.2358V84.1619C213.681 84.2216 213.572 84.2763 213.403 84.326C213.237 84.3724 213.045 84.4138 212.826 84.4503C212.61 84.4834 212.4 84.5133 212.195 84.5398C211.992 84.563 211.828 84.5829 211.702 84.5994C211.397 84.6392 211.112 84.7038 210.847 84.7933C210.585 84.8795 210.373 85.0104 210.211 85.1861C210.052 85.3584 209.972 85.5937 209.972 85.892C209.972 86.2997 210.123 86.608 210.425 86.8168C210.73 87.0223 211.116 87.125 211.583 87.125ZM217.046 88V80.3636H218.179V81.517H218.259C218.398 81.1392 218.65 80.8326 219.014 80.5973C219.379 80.362 219.79 80.2443 220.247 80.2443C220.333 80.2443 220.441 80.246 220.57 80.2493C220.7 80.2526 220.797 80.2576 220.864 80.2642V81.4574C220.824 81.4474 220.733 81.4325 220.59 81.4126C220.451 81.3894 220.304 81.3778 220.148 81.3778C219.777 81.3778 219.445 81.4557 219.153 81.6115C218.865 81.764 218.636 81.9761 218.467 82.2479C218.302 82.5163 218.219 82.8229 218.219 83.1676V88H217.046Z" fill="black"/>
</g>
<path fill-rule="evenodd" clip-rule="evenodd" d="M11.1934 24L7.39161e-05 29.6569L11.1934 35.3137L12.5926 34.6066L2.7984 29.6569L12.5926 24.7071L11.1934 24Z" fill="#D9D9D9"/>
<path d="M13.1724 24L24.3657 29.6569L13.1724 35.3137L1.97904 29.6569L13.1724 24Z" fill="white"/>
<defs>
<filter id="filter0_dd_171_2624" x="8" y="0" width="240" height="111" filterUnits="userSpaceOnUse" color-interpolation-filters="sRGB">
<feFlood flood-opacity="0" result="BackgroundImageFix"/>
<feColorMatrix in="SourceAlpha" type="matrix" values="0 0 0 0 0 0 0 0 0 0 0 0 0 0 0 0 0 0 127 0" result="hardAlpha"/>
<feOffset dy="1"/>
<feGaussianBlur stdDeviation="2"/>
<feComposite in2="hardAlpha" operator="out"/>
<feColorMatrix type="matrix" values="0 0 0 0 0.0470588 0 0 0 0 0.0470588 0 0 0 0 0.0509804 0 0 0 0.05 0"/>
<feBlend mode="normal" in2="BackgroundImageFix" result="effect1_dropShadow_171_2624"/>
<feColorMatrix in="SourceAlpha" type="matrix" values="0 0 0 0 0 0 0 0 0 0 0 0 0 0 0 0 0 0 127 0" result="hardAlpha"/>
<feOffset dy="1"/>
<feGaussianBlur stdDeviation="2"/>
<feComposite in2="hardAlpha" operator="out"/>
<feColorMatrix type="matrix" values="0 0 0 0 0.0470588 0 0 0 0 0.0470588 0 0 0 0 0.0509804 0 0 0 0.1 0"/>
<feBlend mode="normal" in2="effect1_dropShadow_171_2624" result="effect2_dropShadow_171_2624"/>
<feBlend mode="normal" in="SourceGraphic" in2="effect2_dropShadow_171_2624" result="shape"/>
</filter>
</defs>
</svg>
